<svg width="20" height="19" viewBox="0 0 20 19" fill="none" xmlns="http://www.w3.org/2000/svg">
<path d="M2 18C1.45 18 0.979 17.8043 0.587 17.413C0.195667 17.021 0 16.55 0 16V2C0 1.45 0.195667 0.979 0.587 0.587C0.979 0.195667 1.45 0 2 0H16C16.55 0 17.021 0.195667 17.413 0.587C17.8043 0.979 18 1.45 18 2V7.675C17.5333 7.44167 17.046 7.27067 16.538 7.162C16.0293 7.054 15.5167 7 15 7C14.5167 7 14.0583 7.04567 13.625 7.137C13.1917 7.229 12.7667 7.35833 12.35 7.525C12.4 7.35833 12.4377 7.19167 12.463 7.025C12.4877 6.85833 12.5 6.68333 12.5 6.5C12.5 5.53333 12.1583 4.70833 11.475 4.025C10.7917 3.34167 9.96667 3 9 3C8.03333 3 7.20833 3.34167 6.525 4.025C5.84167 4.70833 5.5 5.53333 5.5 6.5C5.5 7.46667 5.84167 8.29167 6.525 8.975C7.20833 9.65833 8.03333 10 9 10H9.25C9.03333 10.3 8.846 10.6207 8.688 10.962C8.52933 11.304 8.39167 11.6583 8.275 12.025C7.04167 12.1083 5.896 12.4 4.838 12.9C3.77933 13.4 2.83333 14.05 2 14.85V16H8.3C8.41667 16.3667 8.55 16.7167 8.7 17.05C8.85 17.3833 9.03333 17.7 9.25 18H2ZM14 19L13.7 17.5C13.5 17.4167 13.3127 17.3293 13.138 17.238C12.9627 17.146 12.7833 17.0333 12.6 16.9L11.15 17.35L10.15 15.65L11.3 14.65C11.2667 14.4167 11.25 14.2 11.25 14C11.25 13.8 11.2667 13.5833 11.3 13.35L10.15 12.35L11.15 10.65L12.6 11.1C12.7833 10.9667 12.9627 10.854 13.138 10.762C13.3127 10.6707 13.5 10.5833 13.7 10.5L14 9H16L16.3 10.5C16.5 10.5833 16.6877 10.675 16.863 10.775C17.0377 10.875 17.2167 11 17.4 11.15L18.85 10.65L19.85 12.4L18.7 13.4C18.7333 13.6 18.75 13.8083 18.75 14.025C18.75 14.2417 18.7333 14.45 18.7 14.65L19.85 15.65L18.85 17.35L17.4 16.9C17.2167 17.0333 17.0377 17.146 16.863 17.238C16.6877 17.3293 16.5 17.4167 16.3 17.5L16 19H14ZM15 16C15.55 16 16.021 15.8043 16.413 15.413C16.8043 15.021 17 14.55 17 14C17 13.45 16.8043 12.979 16.413 12.587C16.021 12.1957 15.55 12 15 12C14.45 12 13.979 12.1957 13.587 12.587C13.1957 12.979 13 13.45 13 14C13 14.55 13.1957 15.021 13.587 15.413C13.979 15.8043 14.45 16 15 16Z" fill="black"/>
</svg>
