<svg width="26" height="24" viewBox="0 0 26 24" fill="none" xmlns="http://www.w3.org/2000/svg">
<path d="M13.0761 5C12.7833 5 12.538 4.904 12.3402 4.712C12.1417 4.52067 12.0425 4.28333 12.0425 4C12.0425 3.71667 12.1417 3.479 12.3402 3.287C12.538 3.09567 12.7833 3 13.0761 3C13.369 3 13.6146 3.09567 13.8131 3.287C14.0108 3.479 14.1097 3.71667 14.1097 4C14.1097 4.28333 14.0108 4.52067 13.8131 4.712C13.6146 4.904 13.369 5 13.0761 5ZM13.0761 2C12.7833 2 12.538 1.904 12.3402 1.712C12.1417 1.52067 12.0425 1.28333 12.0425 1C12.0425 0.716667 12.1417 0.479 12.3402 0.287C12.538 0.0956667 12.7833 0 13.0761 0C13.369 0 13.6146 0.0956667 13.8131 0.287C14.0108 0.479 14.1097 0.716667 14.1097 1C14.1097 1.28333 14.0108 1.52067 13.8131 1.712C13.6146 1.904 13.369 2 13.0761 2ZM9.35514 22C8.26985 21.3833 7.41265 20.5293 6.78353 19.438C6.1551 18.346 5.84088 17.2 5.84088 16C5.84088 14.6833 6.19816 13.45 6.91273 12.3C7.62799 11.15 8.64884 10.275 9.9753 9.675V7C9.9753 6.71667 10.0745 6.479 10.273 6.287C10.4707 6.09567 10.7161 6 11.0089 6H15.1433C15.4362 6 15.6818 6.09567 15.8803 6.287C16.0781 6.479 16.1769 6.71667 16.1769 7V9.675C17.4517 10.2583 18.4595 11.1207 19.2002 12.262C19.941 13.404 20.3114 14.65 20.3114 16C20.3114 17.2 20.0099 18.3377 19.407 19.413C18.804 20.4877 17.9341 21.35 16.7971 22H9.35514ZM9.9753 20H16.1769C16.8316 19.5167 17.3397 18.929 17.7015 18.237C18.0633 17.5457 18.2442 16.8 18.2442 16C18.2442 15.0333 17.9816 14.1457 17.4565 13.337C16.9308 12.529 16.2114 11.9167 15.2984 11.5L14.1097 10.95V8H12.0425V10.95L10.8539 11.5C9.94085 11.9167 9.22181 12.529 8.69673 13.337C8.17097 14.1457 7.90809 15.0333 7.90809 16C7.90809 16.8 8.08897 17.5457 8.45074 18.237C8.8125 18.929 9.32069 19.5167 9.9753 20ZM7.90809 3C7.61524 3 7.36958 2.904 7.17113 2.712C6.97337 2.52067 6.87449 2.28333 6.87449 2C6.87449 1.71667 6.97337 1.479 7.17113 1.287C7.36958 1.09567 7.61524 1 7.90809 1C8.20095 1 8.4466 1.09567 8.64505 1.287C8.84282 1.479 8.9417 1.71667 8.9417 2C8.9417 2.28333 8.84282 2.52067 8.64505 2.712C8.4466 2.904 8.20095 3 7.90809 3ZM18.2442 3C17.9513 3 17.706 2.904 17.5082 2.712C17.3098 2.52067 17.2105 2.28333 17.2105 2C17.2105 1.71667 17.3098 1.479 17.5082 1.287C17.706 1.09567 17.9513 1 18.2442 1C18.537 1 18.7823 1.09567 18.9801 1.287C19.1785 1.479 19.2778 1.71667 19.2778 2C19.2778 2.28333 19.1785 2.52067 18.9801 2.712C18.7823 2.904 18.537 3 18.2442 3ZM9.9753 5C9.68245 5 9.43714 4.904 9.23938 4.712C9.04093 4.52067 8.9417 4.28333 8.9417 4C8.9417 3.71667 9.04093 3.479 9.23938 3.287C9.43714 3.09567 9.68245 3 9.9753 3C10.2682 3 10.5138 3.09567 10.7123 3.287C10.91 3.479 11.0089 3.71667 11.0089 4C11.0089 4.28333 10.91 4.52067 10.7123 4.712C10.5138 4.904 10.2682 5 9.9753 5ZM16.1769 5C15.8841 5 15.6388 4.904 15.441 4.712C15.2426 4.52067 15.1433 4.28333 15.1433 4C15.1433 3.71667 15.2426 3.479 15.441 3.287C15.6388 3.09567 15.8841 3 16.1769 3C16.4698 3 16.7154 3.09567 16.9139 3.287C17.1117 3.479 17.2105 3.71667 17.2105 4C17.2105 4.28333 17.1117 4.52067 16.9139 4.712C16.7154 4.904 16.4698 5 16.1769 5Z" fill="black"/>
</svg>
