<svg width="26" height="24" viewBox="0 0 26 24" fill="none" xmlns="http://www.w3.org/2000/svg">
<g clip-path="url(#clip0_160_249)">
<path d="M23.3993 2.53275C23.3494 2.47768 23.2958 2.42582 23.2388 2.3775C22.9679 2.148 22.5977 1.98675 22.1423 1.9815H22.1326C22.1059 1.98075 22.0776 1.983 22.0512 1.983C21.7683 1.99612 20.9512 2.31975 20.7469 2.95875C20.5438 2.32012 19.7272 1.9965 19.4442 1.983C19.4167 1.983 19.3876 1.98075 19.3616 1.9815H19.3543C18.8958 1.98675 18.5271 2.14762 18.2554 2.3775C18.1965 2.42625 18.1438 2.47912 18.0954 2.53275C17.7504 2.91337 17.5864 3.45225 17.7992 3.94537C17.8236 4.01475 17.8543 4.086 17.8876 4.16025C18.388 5.26275 19.7493 6.7815 20.4229 7.49662C20.5667 7.67175 20.6783 7.806 20.7438 7.8855V7.89337L20.7462 7.89637V7.89037L20.7469 7.88887C20.7474 7.88926 20.7477 7.8898 20.7477 7.89037L20.7493 7.89637L20.75 7.89412L20.752 7.89337V7.8855C20.8183 7.806 20.9272 7.67175 21.071 7.49662C21.7446 6.7815 23.1074 5.26237 23.6078 4.16025C23.64 4.08964 23.6696 4.01797 23.6966 3.94537C23.9082 3.45262 23.7447 2.91375 23.3993 2.53275Z" fill="black"/>
<path d="M19.0349 4.30612C19.0027 4.23535 18.9729 4.16356 18.9457 4.09087C18.7329 3.59812 18.8976 3.05925 19.2422 2.67862C19.4541 2.44294 19.733 2.27275 20.0442 2.18925C19.807 2.058 19.5713 1.98862 19.4449 1.983C19.4174 1.983 19.3884 1.98075 19.3624 1.9815H19.355C18.8965 1.98675 18.5279 2.14762 18.2562 2.3775C18.1972 2.42625 18.1445 2.47912 18.0961 2.53275C17.7511 2.91337 17.5872 3.45225 17.8 3.94537C17.8244 4.01475 17.855 4.086 17.8883 4.16025C18.3887 5.26275 19.75 6.7815 20.4236 7.49662C20.5674 7.67175 20.6791 7.806 20.7446 7.8855V7.89337L20.7469 7.89637V7.89037L20.7477 7.88887C20.7481 7.88926 20.7484 7.8898 20.7484 7.89037L20.75 7.89637L20.7508 7.89412L20.7527 7.89337V7.8855C20.819 7.806 20.9279 7.67175 21.0717 7.49662L21.2547 7.302C20.5353 6.51487 19.4651 5.25675 19.0349 4.30612Z" fill="black"/>
<path d="M9.09625 2.53275C9.04621 2.47777 8.99261 2.42592 8.93578 2.3775C8.66446 2.148 8.2943 1.98675 7.83926 1.9815H7.82957C7.80244 1.98075 7.77453 1.983 7.74817 1.983C7.46483 1.99612 6.64777 2.31975 6.4435 2.95875C6.24001 2.31975 5.42372 1.99612 5.14038 1.983C5.11248 1.983 5.08379 1.98075 5.05821 1.9815H5.04852C4.59348 1.98675 4.22409 2.148 3.952 2.3775C3.89347 2.42625 3.84037 2.47912 3.7923 2.53275C3.44695 2.91375 3.28261 3.45262 3.49618 3.94537C3.52098 4.01475 3.55121 4.086 3.58455 4.16025C4.08494 5.26275 5.4462 6.7815 6.11908 7.49662L6.44079 7.8855V7.89337L6.44311 7.89637V7.89075L6.44389 7.89L6.44544 7.89075V7.89675L6.44777 7.8945L6.44854 7.89375V7.88587C6.51482 7.80637 6.62412 7.67212 6.76793 7.497C7.44158 6.78187 8.80439 5.26275 9.30478 4.16062C9.33773 4.08637 9.36757 4.01475 9.39354 3.94575C9.60517 3.45262 9.4416 2.91375 9.09625 2.53275Z" fill="black"/>
<path d="M4.73069 4.30612C4.69805 4.23549 4.66819 4.16369 4.64115 4.09087C4.42913 3.59775 4.5927 3.05925 4.93689 2.67862C5.14898 2.44276 5.42817 2.27256 5.73962 2.18925C5.50202 2.058 5.26713 1.98862 5.14038 1.983C5.11248 1.983 5.08379 1.98075 5.05821 1.9815H5.04852C4.59348 1.98675 4.22409 2.148 3.952 2.3775C3.89347 2.42625 3.84037 2.47912 3.7923 2.53275C3.44695 2.91375 3.28261 3.45262 3.49618 3.94537C3.52098 4.01475 3.55121 4.086 3.58455 4.16025C4.08494 5.26275 5.4462 6.7815 6.11908 7.49662L6.44079 7.8855V7.89337L6.44311 7.89637V7.89075L6.44389 7.89L6.44544 7.89075V7.89675L6.44777 7.8945L6.44854 7.89375V7.88587C6.51482 7.80637 6.62412 7.67212 6.76793 7.497L6.95049 7.30237C6.2311 6.51487 5.16093 5.25675 4.73069 4.30612Z" fill="black"/>
<path d="M6.10215 15.8213L6.44363 14.0794L5.44051 14.34L4.60446 14.9498L3.77344 15.8213H6.10215ZM21.0876 15.8213L20.7465 14.0794L21.7481 14.34L22.5853 14.9498L23.4148 15.8213H21.0876Z" fill="black"/>
<path d="M15.182 1.57913H14.1708V0.474378C14.1655 0.338082 14.1058 0.209083 14.0042 0.114474C13.9027 0.0198656 13.7672 -0.0329895 13.6262 -0.0329895C13.4852 -0.0329895 13.3497 0.0198656 13.2482 0.114474C13.1466 0.209083 13.0869 0.338082 13.0816 0.474378V1.57913H12.0704C11.8467 1.57913 11.6777 1.80525 11.6777 2.10563C11.6777 2.406 11.8467 2.63213 12.0704 2.63213H13.0816V5.80238C13.0869 5.93867 13.1466 6.06767 13.2482 6.16228C13.3497 6.25689 13.4852 6.30975 13.6262 6.30975C13.7672 6.30975 13.9027 6.25689 14.0042 6.16228C14.1058 6.06767 14.1655 5.93867 14.1708 5.80238V2.63175H15.182C15.4045 2.63175 15.5735 2.40563 15.5735 2.10525C15.5735 1.80488 15.4049 1.57913 15.182 1.57913Z" fill="black"/>
<path d="M21.3178 22.0136C21.8578 22.0136 22.295 22.1651 22.295 22.3519C22.295 22.5413 21.8578 22.6924 21.3178 22.6924H6.03856C5.50211 22.6924 5.06567 22.5413 5.06567 22.3519C5.06567 22.1651 5.50211 22.0136 6.03856 22.0136H21.3178Z" fill="#BBBDBF"/>
<path d="M22.3031 22.6913C22.9183 22.6913 23.4148 22.8435 23.4148 23.031C23.4148 23.2193 22.9183 23.3708 22.3031 23.3708H4.88276C4.27151 23.3708 3.77344 23.2193 3.77344 23.031C3.77344 22.8435 4.27151 22.6913 4.88276 22.6913H22.3031Z" fill="black"/>
<path d="M23.4031 23.3737C24.0891 23.3737 24.6422 23.5267 24.6422 23.7135C24.6422 23.9002 24.0887 24.0529 23.4031 24.0529H3.9842C3.30124 24.0529 2.74658 23.9002 2.74658 23.7135C2.74658 23.5267 3.30124 23.3737 3.9842 23.3737H23.4031Z" fill="white" fill-opacity="0.9"/>
<path d="M10.9355 16.155V6.3L13.624 4.425L16.3139 6.3V16.155H10.9355Z" fill="black"/>
<path d="M12.139 6.35475V10.0324L10.9099 10.6624L10.9355 10.3226V6.07537L13.6681 4.5225H13.7177L12.139 6.35475Z" fill="black"/>
<path d="M5.7749 22.0136V14.5474L13.62 9.07125L21.474 14.5474V22.0136H5.7749Z" fill="black"/>
<path d="M8.64432 14.4581V22.0144H5.7749V14.3707L13.4176 9.072L13.7894 9.25537L8.64432 14.4581Z" fill="black"/>
<path d="M14.6585 9.33488V7.77375C14.6585 7.5085 14.5496 7.25412 14.3558 7.06656C14.1619 6.879 13.899 6.77363 13.6248 6.77363C13.3506 6.77363 13.0877 6.879 12.8938 7.06656C12.7 7.25412 12.5911 7.5085 12.5911 7.77375V9.33488H14.6585Z" fill="black"/>
<path d="M13.8774 6.80625C13.7947 6.78531 13.7098 6.77411 13.6243 6.77287C13.4885 6.77277 13.354 6.79859 13.2285 6.84884C13.103 6.89909 12.989 6.97279 12.893 7.06572C12.797 7.15864 12.7208 7.26898 12.6689 7.39041C12.6171 7.51184 12.5904 7.64198 12.5906 7.77337V9.3345H13.0956V7.77337C13.0959 7.55076 13.1731 7.33462 13.315 7.15937C13.4568 6.98411 13.6552 6.85981 13.8786 6.80625" fill="black"/>
<path d="M13.836 8.90099C13.9588 9.07762 13.8925 9.32887 13.6875 9.46237L4.04629 15.7399C3.84202 15.8726 3.57535 15.8381 3.4517 15.6615C3.32806 15.4834 3.39511 15.2321 3.60016 15.0982L13.2414 8.82187C13.4468 8.68799 13.7119 8.72362 13.836 8.90099Z" fill="black"/>
<path d="M13.3665 8.901C13.2429 9.07762 13.3099 9.32887 13.5142 9.46237L23.1558 15.7395C23.3608 15.8722 23.6267 15.8377 23.7508 15.6611C23.8732 15.483 23.8074 15.2317 23.6023 15.0979L13.9611 8.8215C13.7545 8.688 13.4886 8.72362 13.3665 8.901ZM16.8747 6.0075L13.8626 4.04737C13.7925 4.00403 13.7095 3.98439 13.6266 3.9915C13.5413 3.983 13.4555 4.00269 13.3832 4.04737L10.3731 6.0075C10.2048 6.11887 10.1568 6.33487 10.2653 6.49162C10.2979 6.5374 10.3416 6.57476 10.3925 6.60045C10.4434 6.62614 10.5001 6.63937 10.5576 6.639C10.6328 6.63876 10.7063 6.61669 10.7684 6.57562L13.6231 4.71637L16.4782 6.57562C16.5405 6.61696 16.6143 6.63906 16.6898 6.639C16.7472 6.63928 16.8039 6.626 16.8548 6.60032C16.9057 6.57464 16.9494 6.53733 16.9821 6.49162C17.091 6.33487 17.0421 6.11887 16.8747 6.0075Z" fill="black"/>
<path d="M16.1326 22.0343V18.2468C16.1326 16.9073 15.0108 15.8186 13.6259 15.8186C12.2383 15.8186 11.1162 16.9061 11.1162 18.2468V22.0343H16.1326Z" fill="black"/>
<path d="M14.4324 15.9514C14.1726 15.8654 13.9 15.821 13.6254 15.8201C12.2378 15.8201 11.1157 16.9076 11.1157 18.2483V22.0358H12.7285V18.2483C12.7288 17.7411 12.8933 17.2469 13.199 16.8349C13.5046 16.4229 13.9359 16.1139 14.4324 15.9514Z" fill="black"/>
<path d="M20.0969 22.0136V20.4536C20.0969 20.1881 19.988 19.9334 19.7942 19.7455C19.6003 19.5576 19.3372 19.4517 19.0628 19.4512C18.9269 19.4513 18.7923 19.4774 18.6667 19.5278C18.5412 19.5782 18.4271 19.6521 18.3311 19.7452C18.2351 19.8383 18.1589 19.9487 18.107 20.0703C18.0552 20.1918 18.0285 20.3221 18.0287 20.4536V22.0136H20.0969ZM9.26732 22.0136V20.4536C9.26747 20.3221 9.24086 20.1919 9.18899 20.0704C9.13712 19.9488 9.06102 19.8384 8.96503 19.7453C8.86904 19.6522 8.75504 19.5783 8.62954 19.5279C8.50403 19.4774 8.36949 19.4514 8.23359 19.4512C7.95908 19.4515 7.69593 19.5573 7.50201 19.7453C7.30808 19.9333 7.19926 20.188 7.19946 20.4536V22.0136H9.26732Z" fill="black"/>
<path d="M8.57117 19.4906C8.41476 19.4395 8.24803 19.4252 8.08475 19.4487C7.92147 19.4723 7.76632 19.5331 7.63212 19.6261C7.49792 19.7191 7.38852 19.8417 7.31295 19.9837C7.23738 20.1257 7.19781 20.283 7.19751 20.4428V22.0133H7.86767V20.4428C7.86767 20.0025 8.16186 19.6275 8.57117 19.4906ZM19.4031 19.4981C19.2954 19.4625 19.1824 19.444 19.0686 19.4434C18.7928 19.4437 18.5284 19.5499 18.3335 19.7387C18.1385 19.9275 18.0291 20.1834 18.0291 20.4503V22.0196H18.6977V20.4503C18.6977 20.0081 18.993 19.6335 19.4031 19.4981Z" fill="black"/>
</g>
<defs>
<clipPath id="clip0_160_249">
<rect width="24.8065" height="24" fill="white" transform="translate(0.712891)"/>
</clipPath>
</defs>
</svg>
