<svg width="25" height="24" viewBox="0 0 25 24" fill="none" xmlns="http://www.w3.org/2000/svg">
<g clip-path="url(#clip0_160_313)">
<path d="M14.739 11.5369C14.9989 11.5108 15.2581 11.4777 15.5161 11.4375V9.67462C15.1192 9.858 14.7052 9.97125 14.2936 10.059C13.2498 10.2701 12.1881 10.2949 11.1362 10.1884C10.606 10.1235 10.0955 10.0387 9.5668 9.85687C9.46214 9.81862 9.35827 9.77587 9.25478 9.72787V11.3126C11.0695 11.6002 12.9149 11.7221 14.739 11.5369Z" fill="black"/>
<path d="M21.8216 15.7451V9.31537C21.8216 8.56987 21.2922 7.87575 20.3863 7.28775V4.47188C20.3863 4.19625 20.1604 3.96825 19.8662 3.92513C20.0821 3.83663 20.2348 3.654 20.2348 3.43425C20.2348 3.12937 19.5945 2.14538 19.5945 2.14538C19.5945 2.14538 18.9534 3.129 18.9534 3.43425C18.9534 3.651 19.1026 3.83212 19.3142 3.92212C19.0034 3.95212 18.7596 4.18575 18.7596 4.47188V6.49125C18.192 6.28179 17.6106 6.10928 17.0192 5.97487C17.0498 5.90401 17.0659 5.82814 17.0669 5.75138C17.0669 5.38275 16.2917 4.19362 16.2917 4.19362C16.2917 4.19362 15.5824 5.28262 15.5227 5.69887C14.7634 5.5905 13.9552 5.5275 13.1215 5.502V2.80013C13.1215 2.55225 12.923 2.34525 12.661 2.29988C12.8397 2.21925 12.9645 2.06325 12.9645 1.87762C12.9641 1.61062 12.4033 0.75 12.4033 0.75C12.4033 0.75 11.8424 1.61062 11.8424 1.87762C11.8424 2.061 11.9641 2.2155 12.1393 2.29688C11.863 2.33138 11.6486 2.5425 11.6486 2.80013V5.50238C10.8335 5.52863 10.0432 5.59088 9.29974 5.69662C9.22687 5.271 8.5319 4.2045 8.5319 4.2045C8.5319 4.2045 7.7567 5.39325 7.7567 5.76225C7.7567 5.83612 7.77414 5.90587 7.79972 5.97225C7.18893 6.11007 6.58888 6.28914 6.00396 6.50812V4.4775C6.00396 4.20225 5.7776 3.97425 5.48302 3.93112C5.69892 3.84262 5.85241 3.65963 5.85241 3.43988C5.85241 3.135 5.21131 2.151 5.21131 2.151C5.21131 2.151 4.57022 3.13463 4.57022 3.43988C4.57022 3.65663 4.71983 3.83775 4.93147 3.92775C4.62022 3.95812 4.37642 4.19175 4.37642 4.4775V7.31775C3.49773 7.89975 2.98415 8.583 2.98415 9.31575V15.7463C1.59576 16.5248 0.775208 17.4825 0.775208 18.5186C0.775208 21.132 5.98148 23.25 12.4033 23.25C18.8251 23.25 24.0313 21.132 24.0313 18.5186C24.0313 17.4821 23.2104 16.5244 21.8216 15.7451ZM19.2735 3.72862C19.2735 3.576 19.5945 3.084 19.5945 3.084C19.5945 3.084 19.9154 3.576 19.9154 3.72862C19.9147 3.76549 19.9057 3.80176 19.889 3.83492C19.8723 3.86807 19.8484 3.89732 19.8189 3.92062C19.801 3.91913 19.7836 3.91575 19.7654 3.91575H19.3809C19.3758 3.91575 19.3716 3.91687 19.3665 3.91687C19.338 3.89378 19.3149 3.86501 19.2989 3.83253C19.2828 3.80006 19.2742 3.76462 19.2735 3.72862ZM19.1468 4.47188C19.1468 4.37363 19.2538 4.29112 19.3809 4.29112H19.7654C19.8917 4.29112 19.9987 4.374 19.9987 4.47188V8.52075C19.9981 8.56045 19.982 8.59846 19.9538 8.62725L19.8111 8.69775C19.7962 8.70034 19.781 8.70172 19.7658 8.70187H19.3813C19.2545 8.70187 19.1472 8.61863 19.1472 8.52075V4.47188H19.1468ZM16.2913 5.32837C16.2913 5.32837 16.6797 5.92275 16.6797 6.10725C16.6797 6.29137 16.5057 6.441 16.2913 6.441C16.077 6.441 15.9037 6.29175 15.9037 6.10725C15.9037 5.92275 16.2913 5.32837 16.2913 5.32837ZM12.123 2.13487C12.123 2.00175 12.4033 1.57162 12.4033 1.57162C12.4033 1.57162 12.6843 2.00137 12.6843 2.13487C12.6836 2.1652 12.6764 2.19507 12.6633 2.22262C12.6502 2.25016 12.6313 2.2748 12.6079 2.295C12.5893 2.29312 12.5715 2.28975 12.5525 2.28975H12.2164C12.2095 2.28975 12.2033 2.29125 12.1963 2.29163C12.1738 2.27165 12.1557 2.24746 12.1431 2.22051C12.1305 2.19357 12.1237 2.16444 12.123 2.13487ZM12.0362 2.80013C12.0362 2.727 12.1188 2.66512 12.2164 2.66512H12.5525C12.6506 2.66512 12.7335 2.727 12.7335 2.80013V6.34313C12.7331 6.37027 12.7223 6.39631 12.7033 6.41625L12.5851 6.47513C12.5743 6.47663 12.5634 6.47739 12.5525 6.47738H12.2164C12.1188 6.47738 12.0362 6.41588 12.0362 6.34313V2.80013ZM8.5319 5.3385C8.5319 5.3385 8.9195 5.93325 8.9195 6.11775C8.9195 6.3015 8.74625 6.4515 8.5319 6.4515C8.31756 6.4515 8.1443 6.30187 8.1443 6.11775C8.1443 5.93325 8.5319 5.3385 8.5319 5.3385ZM4.89116 3.7335C4.89116 3.58163 5.21131 3.08963 5.21131 3.08963C5.21131 3.08963 5.53225 3.58163 5.53225 3.7335C5.5316 3.77052 5.52259 3.80696 5.50585 3.84025C5.48912 3.87355 5.46505 3.9029 5.43535 3.92625C5.41752 3.92475 5.40046 3.92137 5.38225 3.92137H4.99775C4.99309 3.92137 4.98883 3.9225 4.98418 3.9225C4.95568 3.89921 4.93264 3.8703 4.9166 3.83771C4.90055 3.80512 4.89188 3.76959 4.89116 3.7335ZM4.76402 4.47675C4.76402 4.37887 4.871 4.29637 4.99813 4.29637H5.38263C5.50938 4.29637 5.61675 4.37925 5.61675 4.47675V8.526C5.61599 8.56553 5.59979 8.60331 5.5714 8.63175L5.42876 8.70263C5.41366 8.70521 5.39836 8.70659 5.38302 8.70675H4.99852C4.87178 8.70675 4.76441 8.62388 4.76441 8.526V4.47675H4.76402ZM4.33611 8.84287C4.3489 8.77913 4.37448 8.721 4.39735 8.66175C4.42293 8.7525 4.47332 8.83387 4.54193 8.901C4.51169 9.11512 4.56596 9.33225 4.68418 9.52012C4.93573 9.91125 5.36636 10.185 5.80512 10.4025C6.41947 10.6984 7.08072 10.887 7.7567 11.0355V7.21838C7.7567 7.119 7.80592 7.032 7.87802 6.96038C7.76639 6.98138 7.65398 6.99712 7.54313 7.02112C7.0218 7.13587 6.49156 7.28775 6.00396 7.50712V7.30875C6.00977 7.30612 6.0152 7.30312 6.02102 7.30087C6.49699 7.095 6.99351 6.94387 7.497 6.82837C8.50591 6.60247 9.53497 6.47111 10.5699 6.43612C10.9323 6.423 11.2955 6.42488 11.6591 6.4335C11.6967 6.618 11.8447 6.76575 12.0389 6.82388C11.5524 6.77529 11.0637 6.74864 10.5746 6.744C10 6.74131 9.42575 6.76735 8.854 6.822C9.0823 6.86475 9.25517 7.0215 9.25517 7.21838V7.90537L9.27571 7.89563C9.54161 7.78387 9.80479 7.71938 10.0707 7.67062C10.6013 7.57613 11.1327 7.5555 11.6618 7.58475C12.1936 7.62038 12.713 7.69163 13.2324 7.90575C13.3603 7.962 13.4878 8.03062 13.606 8.13412C13.718 8.229 13.8494 8.41313 13.7967 8.62387C13.7405 8.82037 13.6006 8.92013 13.4812 8.99662C13.3601 9.06845 13.2294 9.12397 13.0928 9.16162C12.5668 9.309 12.0347 9.3075 11.5141 9.24337C11.2533 9.20325 10.999 9.15675 10.7509 9.04087C10.6358 8.98012 10.4994 8.90625 10.4591 8.7495C10.437 8.57663 10.5908 8.48663 10.6978 8.43188L10.7257 8.481C10.6234 8.541 10.5219 8.63925 10.5513 8.73C10.5808 8.82075 10.6967 8.88375 10.8044 8.92762C11.0265 9.0135 11.287 9.04463 11.5331 9.06262C12.0312 9.0885 12.5455 9.04275 12.9998 8.89163C13.2037 8.82825 13.4572 8.66625 13.4672 8.55413C13.499 8.47388 13.2975 8.31412 13.0835 8.244C12.6475 8.08875 12.1308 8.0415 11.642 8.02387C11.1474 8.013 10.6474 8.04975 10.1715 8.15137C9.93541 8.20237 9.7013 8.27063 9.49936 8.364C9.41381 8.40377 9.33209 8.45083 9.25517 8.50463V9.0735C9.39936 9.17025 9.58037 9.2505 9.76797 9.31425C10.2087 9.46012 10.7172 9.54187 11.204 9.59212C12.1905 9.693 13.2037 9.66075 14.1727 9.48487C14.649 9.39412 15.1208 9.26475 15.5165 9.04575V7.695C15.3607 7.605 15.1959 7.5225 15.0219 7.452C14.5735 7.27012 14.087 7.14975 13.592 7.04888C13.1608 6.96694 12.7263 6.90164 12.2897 6.85312H12.5533C12.6017 6.85312 12.6498 6.8475 12.6967 6.83625L12.9075 6.73725L12.9479 6.71063C13.0072 6.65887 13.0517 6.59775 13.0812 6.531C13.2804 6.55463 13.4793 6.57787 13.6777 6.61088C14.189 6.6975 14.7056 6.80625 15.2118 6.9915C15.3215 7.03125 15.4301 7.07737 15.5378 7.12687C15.5866 6.939 15.7851 6.79425 16.0339 6.79425H16.4987C16.784 6.79425 17.0157 6.98025 17.0157 7.209V11.1112C18.2119 10.7689 19.3445 10.2285 20.298 9.41587L20.3383 9.456C19.6414 10.1929 18.7553 10.7663 17.8018 11.169C17.544 11.2766 17.2816 11.373 17.0161 11.4611V11.775C17.0161 11.889 16.9588 11.9929 16.8653 12.0675L16.6328 12.1755C16.5887 12.1848 16.5438 12.1897 16.4987 12.1901H16.0339C15.7808 12.1901 15.5797 12.0413 15.5351 11.8477C15.2897 11.8954 15.0428 11.9362 14.7956 11.9692C12.9494 12.2141 11.0726 12.1286 9.25052 11.8043C9.24697 11.857 9.23228 11.9085 9.20734 11.9555C9.18241 12.0025 9.14776 12.0441 9.10555 12.0776L8.87299 12.1852C8.83074 12.1943 8.78501 12.2003 8.73888 12.2003H8.27415C7.9881 12.2003 7.75709 12.0142 7.75709 11.7851V11.4773C7.03227 11.2856 6.31559 11.0422 5.65163 10.6781C5.20007 10.4213 4.74813 10.1085 4.47642 9.63412C4.34386 9.39863 4.27836 9.11287 4.33611 8.84287ZM21.0464 17.7514C21.0464 19.2068 17.3502 20.8342 12.4033 20.8342C7.45592 20.8342 3.75936 19.2068 3.75936 17.7514V16.2611C4.14076 16.2413 4.44541 15.9739 4.44541 15.6442V14.1986C4.44541 13.7434 4.87914 13.3744 5.41442 13.3744C5.9497 13.3744 6.3842 13.7434 6.3842 14.1986V15.9821C6.3842 16.5116 6.88924 16.9414 7.51135 16.9414C8.13422 16.9414 8.63927 16.5116 8.63927 15.9821V14.16C8.63927 13.6834 9.09354 13.2975 9.65362 13.2975C10.2145 13.2975 10.6688 13.6834 10.6688 14.16V15.3218C10.6688 15.5869 10.9207 15.8014 11.2327 15.8014C11.544 15.8014 11.7959 15.5869 11.7959 15.3218V14.4C11.7959 14.0558 12.1246 13.7767 12.5296 13.7767C12.9339 13.7767 13.2618 14.0558 13.2618 14.4V15.9825C13.2618 16.512 13.7676 16.9417 14.3897 16.9417C15.0126 16.9417 15.5177 16.512 15.5177 15.9825V14.2087C15.5177 13.7587 15.9467 13.3935 16.4762 13.3935C17.0057 13.3935 17.4347 13.7587 17.4347 14.2087V15.5033C17.4347 15.768 17.6867 15.9825 17.9987 15.9825C18.3099 15.9825 18.5627 15.768 18.5627 15.5033V14.5969C18.5627 14.361 18.7867 14.1698 19.0638 14.1698C19.3417 14.1698 19.5665 14.361 19.5665 14.5969V15.9825C19.5665 16.512 20.0708 16.9417 20.6937 16.9417C20.8177 16.9417 20.9348 16.9204 21.0464 16.8889V17.7514Z" fill="black"/>
</g>
<defs>
<clipPath id="clip0_160_313">
<rect width="24.8065" height="24" fill="white"/>
</clipPath>
</defs>
</svg>
