<svg width="26" height="24" viewBox="0 0 26 24" fill="none" xmlns="http://www.w3.org/2000/svg">
<path d="M5.43413 12H4.40052V20C4.40052 20.5304 4.61832 21.0391 5.006 21.4142C5.39367 21.7893 5.91948 22 6.46774 22H11.6358V12H5.43413ZM18.871 12H13.703V22H18.871C19.4193 22 19.9451 21.7893 20.3327 21.4142C20.7204 21.0391 20.9382 20.5304 20.9382 20V12H18.871ZM19.6886 7C19.8402 6.51378 19.9131 6.00779 19.9046 5.5C19.9046 3.57 18.2819 2 16.287 2C14.6105 2 13.4911 3.482 12.7686 5.085C12.0564 3.57 10.8802 2 9.05175 2C7.05689 2 5.43413 3.57 5.43413 5.5C5.43413 6.096 5.51579 6.589 5.65015 7H2.33331V11H11.6358V9H13.703V11H23.0054V7H19.6886ZM7.50134 5.5C7.50134 4.673 8.19696 4 9.05175 4C9.96959 4 10.8234 5.525 11.3236 7H8.53495C8.14838 7 7.50134 7 7.50134 5.5ZM16.287 4C17.1418 4 17.8374 4.673 17.8374 5.5C17.8374 7 17.1904 7 16.8038 7H14.2436C14.7707 5.424 15.5366 4 16.287 4Z" fill="black"/>
</svg>
