<svg width="26" height="24" viewBox="0 0 26 24" fill="none" xmlns="http://www.w3.org/2000/svg">
<g clip-path="url(#clip0_160_323)">
<path d="M23.3992 2.53276C23.3493 2.47769 23.2957 2.42583 23.2388 2.37751C22.9678 2.14801 22.5977 1.98676 22.1423 1.98151H22.1326C22.1058 1.98076 22.0775 1.98301 22.0512 1.98301C21.7682 1.99613 20.9512 2.31976 20.7469 2.95876C20.5438 2.32013 19.7271 1.99651 19.4442 1.98301C19.4166 1.98301 19.3876 1.98076 19.3616 1.98151H19.3542C18.8957 1.98676 18.5271 2.14763 18.2554 2.37751C18.1965 2.42626 18.1437 2.47913 18.0953 2.53276C17.7503 2.91338 17.5864 3.45226 17.7992 3.94538C17.8236 4.01476 17.8542 4.08601 17.8875 4.16026C18.3879 5.26276 19.7492 6.78151 20.4228 7.49663C20.5666 7.67176 20.6783 7.80601 20.7438 7.88551V7.89338L20.7461 7.89638V7.89038L20.7469 7.88888C20.7473 7.88927 20.7476 7.8898 20.7477 7.89038L20.7492 7.89638L20.75 7.89413L20.7519 7.89338V7.88551C20.8182 7.80601 20.9271 7.67176 21.0709 7.49663C21.7446 6.78151 23.1074 5.26238 23.6078 4.16026C23.6399 4.08965 23.6695 4.01798 23.6965 3.94538C23.9082 3.45263 23.7446 2.91376 23.3992 2.53276Z" fill="#FB7979"/>
<path d="M19.0348 4.30613C19.0027 4.23536 18.9729 4.16357 18.9457 4.09088C18.7329 3.59813 18.8976 3.05926 19.2422 2.67863C19.4541 2.44294 19.733 2.27276 20.0442 2.18926C19.8069 2.05801 19.5713 1.98863 19.4449 1.98301C19.4174 1.98301 19.3883 1.98076 19.3624 1.98151H19.355C18.8965 1.98676 18.5279 2.14763 18.2561 2.37751C18.1972 2.42626 18.1445 2.47913 18.0961 2.53276C17.7511 2.91338 17.5871 3.45226 17.7999 3.94538C17.8244 4.01476 17.855 4.08601 17.8883 4.16026C18.3887 5.26276 19.75 6.78151 20.4236 7.49663C20.5674 7.67176 20.679 7.80601 20.7446 7.88551V7.89338L20.7469 7.89638V7.89038L20.7477 7.88888C20.7481 7.88927 20.7484 7.8898 20.7484 7.89038L20.75 7.89638L20.7508 7.89413L20.7527 7.89338V7.88551C20.819 7.80601 20.9279 7.67176 21.0717 7.49663L21.2546 7.30201C20.5352 6.51488 19.4651 5.25676 19.0348 4.30613Z" fill="#FA3419"/>
<path d="M9.09634 2.53276C9.04629 2.47778 8.9927 2.42592 8.93587 2.37751C8.66455 2.14801 8.29439 1.98676 7.83934 1.98151H7.82965C7.80252 1.98076 7.77461 1.98301 7.74825 1.98301C7.46492 1.99613 6.64785 2.31976 6.44359 2.95876C6.24009 2.31976 5.4238 1.99613 5.14047 1.98301C5.11256 1.98301 5.08388 1.98076 5.0583 1.98151H5.04861C4.59356 1.98676 4.22418 2.14801 3.95208 2.37751C3.89355 2.42626 3.84045 2.47913 3.79239 2.53276C3.44703 2.91376 3.28269 3.45263 3.49626 3.94538C3.52107 4.01476 3.5513 4.08601 3.58463 4.16026C4.08503 5.26276 5.44629 6.78151 6.11916 7.49663L6.44087 7.88551V7.89338L6.4432 7.89638V7.89076L6.44397 7.89001L6.44552 7.89076V7.89676L6.44785 7.89451L6.44863 7.89376V7.88588C6.51491 7.80638 6.62421 7.67213 6.76801 7.49701C7.44166 6.78188 8.80447 5.26276 9.30487 4.16063C9.33781 4.08638 9.36766 4.01476 9.39363 3.94576C9.60526 3.45263 9.44169 2.91376 9.09634 2.53276Z" fill="#FB7979"/>
<path d="M4.73077 4.30613C4.69814 4.2355 4.66827 4.1637 4.64124 4.09088C4.42922 3.59776 4.59279 3.05926 4.93698 2.67863C5.14906 2.44277 5.42825 2.27256 5.7397 2.18926C5.5021 2.05801 5.26721 1.98863 5.14047 1.98301C5.11256 1.98301 5.08388 1.98076 5.0583 1.98151H5.04861C4.59356 1.98676 4.22418 2.14801 3.95208 2.37751C3.89355 2.42626 3.84045 2.47913 3.79239 2.53276C3.44703 2.91376 3.28269 3.45263 3.49626 3.94538C3.52107 4.01476 3.5513 4.08601 3.58463 4.16026C4.08503 5.26276 5.44629 6.78151 6.11916 7.49663L6.44087 7.88551V7.89338L6.4432 7.89638V7.89076L6.44397 7.89001L6.44552 7.89076V7.89676L6.44785 7.89451L6.44863 7.89376V7.88588C6.51491 7.80638 6.62421 7.67213 6.76801 7.49701L6.95057 7.30238C6.23118 6.51488 5.16101 5.25676 4.73077 4.30613Z" fill="#FA3419"/>
<path d="M6.10211 15.8213L6.44359 14.0794L5.44048 14.34L4.60442 14.9498L3.7734 15.8213H6.10211ZM21.0876 15.8213L20.7465 14.0794L21.7481 14.34L22.5853 14.9498L23.4148 15.8213H21.0876Z" fill="#FB7979"/>
<path d="M15.1821 1.57913H14.1708V0.474378C14.1655 0.338082 14.1058 0.209083 14.0043 0.114474C13.9027 0.0198656 13.7672 -0.0329895 13.6262 -0.0329895C13.4853 -0.0329895 13.3498 0.0198656 13.2482 0.114474C13.1467 0.209083 13.087 0.338082 13.0817 0.474378V1.57913H12.0704C11.8468 1.57913 11.6778 1.80525 11.6778 2.10563C11.6778 2.406 11.8468 2.63213 12.0704 2.63213H13.0817V5.80238C13.087 5.93867 13.1467 6.06767 13.2482 6.16228C13.3498 6.25689 13.4853 6.30975 13.6262 6.30975C13.7672 6.30975 13.9027 6.25689 14.0043 6.16228C14.1058 6.06767 14.1655 5.93867 14.1708 5.80238V2.63175H15.1821C15.4046 2.63175 15.5736 2.40563 15.5736 2.10525C15.5736 1.80488 15.4049 1.57913 15.1821 1.57913Z" fill="#FA3419"/>
<path d="M21.3178 22.0136C21.8578 22.0136 22.295 22.1651 22.295 22.3519C22.295 22.5413 21.8578 22.6924 21.3178 22.6924H6.03855C5.50211 22.6924 5.06567 22.5413 5.06567 22.3519C5.06567 22.1651 5.50211 22.0136 6.03855 22.0136H21.3178Z" fill="#BBBDBF"/>
<path d="M22.3031 22.6913C22.9182 22.6913 23.4148 22.8435 23.4148 23.031C23.4148 23.2193 22.9182 23.3708 22.3031 23.3708H4.88272C4.27147 23.3708 3.7734 23.2193 3.7734 23.031C3.7734 22.8435 4.27147 22.6913 4.88272 22.6913H22.3031Z" fill="#FA3419"/>
<path d="M23.4031 23.3737C24.0892 23.3737 24.6423 23.5267 24.6423 23.7135C24.6423 23.9002 24.0888 24.0529 23.4031 24.0529H3.98426C3.3013 24.0529 2.74664 23.9002 2.74664 23.7135C2.74664 23.5267 3.3013 23.3737 3.98426 23.3737H23.4031Z" fill="#7C7C7D"/>
<path d="M10.9355 16.155V6.3L13.6239 4.425L16.3139 6.3V16.155H10.9355Z" fill="#FB7979"/>
<path d="M12.139 6.35476V10.0324L10.9099 10.6624L10.9355 10.3226V6.07538L13.6681 4.52251H13.7177L12.139 6.35476Z" fill="#FA3419"/>
<path d="M5.77498 22.0136V14.5474L13.62 9.07125L21.474 14.5474V22.0136H5.77498Z" fill="#FB7979"/>
<path d="M8.6444 14.4581V22.0144H5.77498V14.3707L13.4177 9.072L13.7894 9.25537L8.6444 14.4581Z" fill="#FA3419"/>
<path d="M14.6584 9.33488V7.77375C14.6584 7.5085 14.5495 7.25412 14.3557 7.06656C14.1618 6.879 13.8989 6.77363 13.6247 6.77363C13.3505 6.77363 13.0876 6.879 12.8937 7.06656C12.6999 7.25412 12.591 7.5085 12.591 7.77375V9.33488H14.6584Z" fill="#633C17"/>
<path d="M13.8774 6.80625C13.7947 6.78531 13.7098 6.77411 13.6243 6.77287C13.4885 6.77277 13.354 6.79859 13.2285 6.84884C13.103 6.89909 12.989 6.97279 12.893 7.06572C12.797 7.15864 12.7208 7.26898 12.6689 7.39041C12.617 7.51184 12.5904 7.64198 12.5906 7.77337V9.3345H13.0956V7.77337C13.0959 7.55076 13.1731 7.33462 13.315 7.15937C13.4568 6.98411 13.6552 6.85981 13.8786 6.80625" fill="#F96666"/>
<path d="M13.8359 8.90099C13.9588 9.07762 13.8925 9.32887 13.6875 9.46237L4.04627 15.7399C3.842 15.8726 3.57533 15.8381 3.45169 15.6615C3.32804 15.4834 3.3951 15.2321 3.60014 15.0982L13.2414 8.82187C13.4468 8.68799 13.7119 8.72362 13.8359 8.90099Z" fill="#DE374B"/>
<path d="M13.3666 8.901C13.2429 9.07762 13.31 9.32887 13.5142 9.46237L23.1558 15.7395C23.3609 15.8722 23.6268 15.8377 23.7508 15.6611C23.8733 15.483 23.8074 15.2317 23.6024 15.0979L13.9611 8.8215C13.7545 8.688 13.4887 8.72362 13.3666 8.901ZM16.8747 6.0075L13.8627 4.04737C13.7925 4.00403 13.7095 3.98439 13.6266 3.9915C13.5413 3.983 13.4555 4.00269 13.3832 4.04737L10.3731 6.0075C10.2049 6.11887 10.1568 6.33487 10.2654 6.49162C10.2979 6.5374 10.3416 6.57476 10.3925 6.60045C10.4435 6.62614 10.5002 6.63937 10.5576 6.639C10.6329 6.63876 10.7063 6.61669 10.7685 6.57562L13.6231 4.71637L16.4782 6.57562C16.5405 6.61696 16.6143 6.63906 16.6899 6.639C16.7473 6.63928 16.8039 6.626 16.8548 6.60032C16.9058 6.57464 16.9495 6.53733 16.9821 6.49162C17.091 6.33487 17.0422 6.11887 16.8747 6.0075Z" fill="#DE374B"/>
<path d="M16.1325 22.0343V18.2468C16.1325 16.9073 15.0108 15.8186 13.6259 15.8186C12.2382 15.8186 11.1161 16.9061 11.1161 18.2468V22.0343H16.1325Z" fill="#633C17"/>
<path d="M14.4325 15.9514C14.1727 15.8654 13.9001 15.821 13.6255 15.8201C12.2379 15.8201 11.1157 16.9076 11.1157 18.2483V22.0358H12.7286V18.2483C12.7288 17.7411 12.8934 17.2469 13.199 16.8349C13.5046 16.4229 13.936 16.1139 14.4325 15.9514Z" fill="#F96666"/>
<path d="M20.0969 22.0136V20.4536C20.0969 20.1881 19.988 19.9334 19.7941 19.7455C19.6002 19.5576 19.3372 19.4517 19.0628 19.4512C18.9268 19.4513 18.7922 19.4774 18.6667 19.5278C18.5411 19.5782 18.4271 19.6521 18.3311 19.7452C18.235 19.8383 18.1589 19.9487 18.107 20.0703C18.0551 20.1918 18.0285 20.3221 18.0286 20.4536V22.0136H20.0969ZM9.26727 22.0136V20.4536C9.26743 20.3221 9.24081 20.1919 9.18894 20.0704C9.13708 19.9488 9.06097 19.8384 8.96498 19.7453C8.86899 19.6522 8.75499 19.5783 8.62949 19.5279C8.50399 19.4774 8.36944 19.4514 8.23354 19.4512C7.95903 19.4515 7.69588 19.5573 7.50196 19.7453C7.30804 19.9333 7.19921 20.188 7.19942 20.4536V22.0136H9.26727Z" fill="#633C17"/>
<path d="M8.57113 19.4906C8.41472 19.4395 8.24799 19.4252 8.08471 19.4487C7.92143 19.4723 7.76628 19.5331 7.63208 19.6261C7.49788 19.7191 7.38848 19.8417 7.31291 19.9837C7.23734 20.1257 7.19777 20.283 7.19747 20.4428V22.0133H7.86764V20.4428C7.86764 20.0025 8.16183 19.6275 8.57113 19.4906ZM19.4031 19.4981C19.2953 19.4625 19.1824 19.444 19.0686 19.4434C18.7928 19.4437 18.5283 19.5499 18.3334 19.7387C18.1385 19.9275 18.029 20.1834 18.029 20.4503V22.0196H18.6976V20.4503C18.6976 20.0081 18.993 19.6335 19.4031 19.4981Z" fill="#F96666"/>
</g>
<defs>
<clipPath id="clip0_160_323">
<rect width="24.8065" height="24" fill="white" transform="translate(0.712891)"/>
</clipPath>
</defs>
</svg>
