<svg width="38" height="38" viewBox="0 0 38 38" fill="none" xmlns="http://www.w3.org/2000/svg">
<path d="M11.5 6.32489V8.82489H35.25V13.7737L32.4766 22.5749H10.7134L7.58844 0.0718384H0.25V2.57184H5.41156L8.53656 25.0749H34.31L37.75 14.1582V6.32489H11.5ZM12.8269 27.5987C11.5013 27.6002 10.2304 28.1275 9.29301 29.0648C8.35565 30.0022 7.82838 31.2731 7.82688 32.5987C7.82688 33.9248 8.35366 35.1966 9.29134 36.1342C10.229 37.0719 11.5008 37.5987 12.8269 37.5987C14.153 37.5987 15.4247 37.0719 16.3624 36.1342C17.3001 35.1966 17.8269 33.9248 17.8269 32.5987C17.8254 31.2731 17.2981 30.0022 16.3608 29.0648C15.4234 28.1275 14.1525 27.6002 12.8269 27.5987ZM12.8269 35.0987C12.3324 35.0987 11.8491 34.9521 11.4379 34.6774C11.0268 34.4027 10.7064 34.0122 10.5172 33.5554C10.328 33.0986 10.2784 32.5959 10.3749 32.111C10.4714 31.626 10.7095 31.1806 11.0591 30.8309C11.4087 30.4813 11.8542 30.2432 12.3391 30.1467C12.8241 30.0503 13.3268 30.0998 13.7836 30.289C14.2404 30.4782 14.6308 30.7987 14.9056 31.2098C15.1803 31.6209 15.3269 32.1043 15.3269 32.5987C15.3261 33.2615 15.0624 33.8969 14.5938 34.3656C14.1251 34.8343 13.4897 35.0979 12.8269 35.0987ZM30.3269 27.5987C29.0013 27.6002 27.7304 28.1275 26.793 29.0648C25.8557 30.0022 25.3284 31.2731 25.3269 32.5987C25.3269 33.9248 25.8537 35.1966 26.7913 36.1342C27.729 37.0719 29.0008 37.5987 30.3269 37.5987C31.653 37.5987 32.9247 37.0719 33.8624 36.1342C34.8001 35.1966 35.3269 33.9248 35.3269 32.5987C35.3254 31.2731 34.7981 30.0022 33.8608 29.0648C32.9234 28.1275 31.6525 27.6002 30.3269 27.5987ZM30.3269 35.0987C29.8324 35.0987 29.3491 34.9521 28.938 34.6774C28.5268 34.4027 28.2064 34.0122 28.0172 33.5554C27.828 33.0986 27.7785 32.5959 27.8749 32.111C27.9714 31.626 28.2095 31.1806 28.5591 30.8309C28.9087 30.4813 29.3542 30.2432 29.8391 30.1467C30.3241 30.0503 30.8268 30.0998 31.2836 30.289C31.7404 30.4782 32.1308 30.7987 32.4055 31.2098C32.6803 31.6209 32.8269 32.1043 32.8269 32.5987C32.8261 33.2615 32.5624 33.8969 32.0938 34.3656C31.6251 34.8343 30.9897 35.0979 30.3269 35.0987Z" fill="black"/>
</svg>
