<svg width="21" height="19" viewBox="0 0 21 19" fill="none" xmlns="http://www.w3.org/2000/svg">
<path d="M20.0415 16.29L16.2587 12.9C17.4792 11.5025 18.1414 9.77666 18.1389 8C18.1389 6.41775 17.6169 4.87103 16.6389 3.55544C15.6609 2.23985 14.2708 1.21447 12.6444 0.608967C11.0181 0.00346625 9.22846 -0.15496 7.50191 0.153721C5.77535 0.462403 4.18942 1.22433 2.94464 2.34315C1.69987 3.46197 0.852167 4.88743 0.508734 6.43928C0.165302 7.99113 0.341564 9.59966 1.01523 11.0615C1.6889 12.5233 2.82971 13.7727 4.29341 14.6518C5.75711 15.5308 7.47795 16 9.23833 16C11.215 16.0022 13.1351 15.407 14.69 14.31L18.4616 17.71C18.565 17.8037 18.6881 17.8781 18.8237 17.9289C18.9592 17.9797 19.1047 18.0058 19.2515 18.0058C19.3984 18.0058 19.5438 17.9797 19.6794 17.9289C19.815 17.8781 19.938 17.8037 20.0415 17.71C20.1457 17.617 20.2285 17.5064 20.285 17.3846C20.3415 17.2627 20.3706 17.132 20.3706 17C20.3706 16.868 20.3415 16.7373 20.285 16.6154C20.2285 16.4936 20.1457 16.383 20.0415 16.29ZM2.56287 8C2.56287 6.81332 2.95438 5.65328 3.68788 4.66658C4.42139 3.67989 5.46396 2.91085 6.68374 2.45673C7.90352 2.0026 9.24574 1.88378 10.5406 2.11529C11.8356 2.3468 13.025 2.91825 13.9586 3.75736C14.8922 4.59648 15.528 5.66558 15.7855 6.82946C16.0431 7.99335 15.9109 9.19975 15.4057 10.2961C14.9004 11.3925 14.0448 12.3295 12.947 12.9888C11.8492 13.6481 10.5586 14 9.23833 14C7.46789 14 5.76996 13.3679 4.51806 12.2426C3.26617 11.1174 2.56287 9.5913 2.56287 8Z" fill="#231F20"/>
</svg>
