<svg width="36" height="36" viewBox="0 0 36 36" fill="none" xmlns="http://www.w3.org/2000/svg">
<path d="M18.2 0.299805C8.53595 0.299805 0.700012 8.13574 0.700012 17.7998C0.700012 27.4639 8.53595 35.2998 18.2 35.2998C27.8641 35.2998 35.7 27.4639 35.7 17.7998C35.7 8.13574 27.8641 0.299805 18.2 0.299805ZM26.6102 13.4912C26.6219 13.6748 26.6219 13.8662 26.6219 14.0537C26.6219 19.7881 22.2547 26.3936 14.2742 26.3936C11.8133 26.3936 9.53204 25.6787 7.61017 24.4482C7.96173 24.4873 8.29767 24.5029 8.65704 24.5029C10.6883 24.5029 12.5555 23.8154 14.0438 22.6514C12.1375 22.6123 10.5359 21.3623 9.98907 19.6436C10.657 19.7412 11.2586 19.7412 11.9461 19.5654C10.9646 19.366 10.0823 18.8329 9.4493 18.0568C8.81625 17.2806 8.47144 16.3092 8.47345 15.3076V15.2529C9.04767 15.5771 9.72345 15.7764 10.4305 15.8037C9.83612 15.4076 9.34868 14.8709 9.01138 14.2413C8.67409 13.6117 8.49737 12.9086 8.49689 12.1943C8.49689 11.3857 8.70783 10.6475 9.08673 10.0068C10.1762 11.348 11.5357 12.4449 13.0768 13.2262C14.618 14.0076 16.3063 14.4559 18.032 14.542C17.4188 11.5928 19.6219 9.20605 22.2703 9.20605C23.5203 9.20605 24.6453 9.72949 25.4383 10.5732C26.4188 10.3896 27.3563 10.0225 28.1922 9.53027C27.868 10.5342 27.1883 11.3818 26.2859 11.917C27.1609 11.8232 28.0047 11.5811 28.7859 11.2412C28.1961 12.1084 27.4578 12.8779 26.6102 13.4912Z" fill="white"/>
</svg>
