<svg width="15" height="15" viewBox="0 0 15 15" fill="none" xmlns="http://www.w3.org/2000/svg">
<path d="M2.29486 0.750006C1.97236 0.750006 1.66486 0.855006 1.37986 1.06501C1.09486 1.27501 0.929856 1.54501 0.854856 1.87501L0.0823557 5.18251C-0.105144 6.00001 0.0448558 6.69001 0.517356 7.29751C0.599856 7.38001 0.674856 7.45501 0.749856 7.52251V12.75C0.749856 13.125 0.899856 13.5 1.20736 13.7925C1.51486 14.085 1.87486 14.25 2.24986 14.25H8.09986C7.83736 13.7925 7.64986 13.29 7.55986 12.75H2.24986V8.25001H2.41486C3.11986 8.25001 3.68236 7.94251 4.10236 7.53751C4.57486 8.00251 5.14486 8.25001 5.84986 8.25001C6.47986 8.25001 7.07986 7.97251 7.49986 7.55251C8.00986 8.02501 8.58736 8.25001 9.22486 8.25001C9.87736 8.25001 10.4324 8.00251 10.9049 7.53751C11.3324 7.96501 11.8949 8.25001 12.6074 8.25001C13.3199 8.25001 13.8224 7.98751 14.2499 7.54501L14.3474 7.44001L14.4599 7.32751C14.9549 6.71251 15.1049 6.00001 14.9174 5.18251L14.1449 1.87501C14.0474 1.54501 13.8749 1.27501 13.5974 1.06501C13.345 0.860312 13.0298 0.74904 12.7049 0.750006M12.6674 2.22751L13.4774 5.53501C13.5449 5.85751 13.4774 6.15001 13.2674 6.41251C13.0799 6.64501 12.8474 6.75001 12.5624 6.75001C12.3299 6.75001 12.1274 6.67501 11.9624 6.49501C11.7974 6.32251 11.7074 6.12001 11.6849 5.88001L11.2274 2.25001M2.29486 2.25001H3.77236L3.31486 5.88001C3.22486 6.47251 2.93236 6.75001 2.43736 6.75001C2.12986 6.75001 1.89736 6.64501 1.73236 6.41251C1.52236 6.15001 1.45486 5.85751 1.52236 5.53501M5.28736 2.25001H6.74986V5.77501C6.74986 6.03751 6.66736 6.26251 6.47986 6.46501C6.29236 6.66001 6.05986 6.75001 5.77486 6.75001C5.51986 6.75001 5.30236 6.66001 5.12986 6.44251C4.95736 6.22501 4.87486 6.00001 4.87486 5.74501V5.62501M8.24986 2.25001H9.71236L10.1249 5.62501C10.1849 5.94001 10.1249 6.20251 9.90736 6.42751C9.71236 6.65251 9.45736 6.75001 9.14986 6.75001C8.91736 6.75001 8.70736 6.66001 8.51986 6.46501C8.43172 6.37337 8.36251 6.26527 8.31619 6.14688C8.26986 6.02848 8.24732 5.90212 8.24986 5.77501M11.2499 14.25L9.18736 12L10.0574 11.13L11.2499 12.3225L13.9424 9.63001L14.8124 10.6875L11.2499 14.25Z" fill="white"/>
</svg>
