<svg width="95" height="64" viewBox="0 0 95 64" fill="none" xmlns="http://www.w3.org/2000/svg">
<path d="M40.6289 7.98438C41.0273 7.98438 41.4551 8.03125 41.9121 8.125C42.3809 8.20703 42.8145 8.35352 43.2129 8.56445C43.6113 8.76367 43.9395 9.03906 44.1973 9.39062C44.4551 9.73047 44.584 10.1582 44.584 10.6738C44.584 11.3066 44.3965 11.8809 44.0215 12.3965C43.6582 12.9121 43.1426 13.3574 42.4746 13.7324C41.8066 14.0957 41.0039 14.3828 40.0664 14.5938C39.1406 14.793 38.1152 14.8926 36.9902 14.8926C35.7246 14.8926 34.3535 14.8047 32.877 14.6289C32.6074 15.4727 32.4023 16.416 32.2617 17.459C32.1328 18.502 32.0625 19.6621 32.0508 20.9395C32.4961 20.9277 32.9473 20.9219 33.4043 20.9219C33.873 20.9102 34.3535 20.9043 34.8457 20.9043C35.502 20.9043 36.1641 20.916 36.832 20.9395C37.5 20.9512 38.1738 20.9688 38.8535 20.9922C39.0527 21.0039 39.2051 21.0801 39.3105 21.2207C39.4277 21.3496 39.4863 21.502 39.4863 21.6777C39.4863 21.8652 39.4219 22.0176 39.293 22.1348C39.1641 22.252 39.0117 22.3105 38.8359 22.3105C38.168 22.3105 37.5 22.2988 36.832 22.2754C36.1758 22.252 35.5254 22.2402 34.8809 22.2402C34.3887 22.2402 33.9082 22.2461 33.4395 22.2578C32.9707 22.2578 32.5078 22.2637 32.0508 22.2754C32.0508 22.4395 32.0508 22.5977 32.0508 22.75C32.0625 22.9023 32.0684 23.0605 32.0684 23.2246C32.0684 25.0527 31.793 26.6816 31.2422 28.1113C30.6914 29.5293 29.8828 30.7246 28.8164 31.6973C27.7617 32.6699 26.4609 33.4082 24.9141 33.9121C23.3672 34.416 21.5918 34.668 19.5879 34.668C18.1113 34.668 16.7988 34.5332 15.6504 34.2637C14.5137 34.0059 13.5117 33.6602 12.6445 33.2266C11.7891 32.793 11.0508 32.3066 10.4297 31.7676C9.82031 31.2168 9.31055 30.666 8.90039 30.1152C8.49023 29.5527 8.16211 29.0137 7.91602 28.498C7.66992 27.9707 7.48828 27.5195 7.37109 27.1445C7.35938 27.1094 7.34766 27.0801 7.33594 27.0566C7.33594 27.0215 7.33594 26.9863 7.33594 26.9512C7.33594 26.7754 7.40039 26.623 7.5293 26.4941C7.6582 26.3535 7.82227 26.2832 8.02148 26.2832C8.16211 26.2832 8.28516 26.3242 8.39062 26.4062C8.50781 26.4883 8.58984 26.5996 8.63672 26.7402C8.74219 27.0684 8.90039 27.4609 9.11133 27.918C9.32227 28.375 9.60938 28.8496 9.97266 29.3418C10.3477 29.8223 10.8047 30.3027 11.3438 30.7832C11.8945 31.2637 12.5566 31.6914 13.3301 32.0664C14.1152 32.4414 15.0176 32.7461 16.0371 32.9805C17.0684 33.2148 18.252 33.332 19.5879 33.332C23.2676 33.332 26.0449 32.4766 27.9199 30.7656C29.8066 29.0547 30.75 26.5293 30.75 23.1895C30.75 23.0488 30.7441 22.9082 30.7324 22.7676C30.7324 22.6152 30.7324 22.4688 30.7324 22.3281C29.5488 22.375 28.459 22.4336 27.4629 22.5039C26.4668 22.5625 25.5938 22.627 24.8438 22.6973C24.1055 22.7559 23.5078 22.8086 23.0508 22.8555C22.5938 22.8906 22.3125 22.9082 22.207 22.9082C22.0078 22.9082 21.832 22.8555 21.6797 22.75C21.5273 22.6328 21.4512 22.4629 21.4512 22.2402C21.4512 22.0762 21.5098 21.9355 21.627 21.8184C21.7441 21.6895 21.8848 21.6133 22.0488 21.5898C22.0605 21.5898 22.2832 21.5664 22.7168 21.5195C23.1621 21.4727 23.7715 21.4199 24.5449 21.3613C25.3184 21.291 26.2324 21.2266 27.2871 21.168C28.3418 21.0977 29.4902 21.0391 30.7324 20.9922C30.7559 18.4023 31.0254 16.2227 31.541 14.4531C30.2637 14.2656 28.9629 14.043 27.6387 13.7852C26.3145 13.5156 24.9961 13.2344 23.6836 12.9414C22.3711 12.6484 21.0762 12.3613 19.7988 12.0801C18.5332 11.7871 17.3145 11.5234 16.1426 11.2891C14.9707 11.0547 13.8691 10.8672 12.8379 10.7266C11.8066 10.5859 10.8691 10.5156 10.0254 10.5156C8.8418 10.5156 7.74023 10.6387 6.7207 10.8848C5.70117 11.1191 4.81641 11.4648 4.06641 11.9219C3.32812 12.3789 2.74219 12.9414 2.30859 13.6094C1.88672 14.2656 1.67578 15.0156 1.67578 15.8594C1.67578 16.4102 1.77539 16.9082 1.97461 17.3535C2.18555 17.7871 2.41992 18.1621 2.67773 18.4785C2.93555 18.7832 3.17578 19.0234 3.39844 19.1992C3.62109 19.3633 3.74414 19.4512 3.76758 19.4629C3.87305 19.5215 3.94922 19.6035 3.99609 19.709C4.04297 19.8145 4.06641 19.9199 4.06641 20.0254C4.06641 20.2246 3.99609 20.3887 3.85547 20.5176C3.72656 20.6348 3.58008 20.6934 3.41602 20.6934C3.28711 20.6934 3.16406 20.6523 3.04688 20.5703C2.76562 20.3828 2.4668 20.1367 2.15039 19.832C1.83398 19.5273 1.54102 19.1816 1.27148 18.7949C1.01367 18.3965 0.796875 17.9512 0.621094 17.459C0.445312 16.9668 0.357422 16.4336 0.357422 15.8594C0.357422 14.8047 0.603516 13.8672 1.0957 13.0469C1.59961 12.2266 2.28516 11.5293 3.15234 10.9551C4.01953 10.3809 5.03906 9.94727 6.21094 9.6543C7.39453 9.34961 8.67188 9.19727 10.043 9.19727C10.8516 9.19727 11.7715 9.27344 12.8027 9.42578C13.834 9.56641 14.9414 9.75391 16.125 9.98828C17.3203 10.2227 18.5684 10.4863 19.8691 10.7793C21.1816 11.0723 22.5176 11.3711 23.877 11.6758C25.2363 11.9688 26.6016 12.25 27.9727 12.5195C29.3438 12.7891 30.6855 13.0176 31.998 13.2051C32.3262 12.291 32.7949 11.5059 33.4043 10.8496C34.0254 10.1816 34.7285 9.63672 35.5137 9.21484C36.2988 8.79297 37.1309 8.48242 38.0098 8.2832C38.9004 8.08398 39.7734 7.98438 40.6289 7.98438ZM43.248 10.6387C43.248 10.3574 43.1543 10.1348 42.9668 9.9707C42.791 9.79492 42.5684 9.66016 42.2988 9.56641C42.0293 9.46094 41.7422 9.39062 41.4375 9.35547C41.1445 9.32031 40.875 9.30273 40.6289 9.30273C40.0664 9.30273 39.4395 9.36133 38.748 9.47852C38.0684 9.5957 37.3887 9.80664 36.709 10.1113C36.041 10.416 35.4082 10.832 34.8105 11.3594C34.2246 11.8867 33.7441 12.5605 33.3691 13.3809C34.6699 13.5215 35.8711 13.5918 36.9727 13.5918C37.875 13.5918 38.707 13.5215 39.4688 13.3809C40.2422 13.2285 40.9043 13.0234 41.4551 12.7656C42.0176 12.5078 42.457 12.1973 42.7734 11.834C43.0898 11.4707 43.248 11.0723 43.248 10.6387ZM39.4512 32.0664C39.6973 32.4062 40.0137 32.6816 40.4004 32.8926C40.7871 33.0918 41.2617 33.1914 41.8242 33.1914C42.3984 33.1914 42.9199 33.0566 43.3887 32.7871C43.8574 32.5059 44.2852 32.1426 44.6719 31.6973C45.0586 31.252 45.4043 30.7539 45.709 30.2031C46.0137 29.6523 46.2891 29.1016 46.5352 28.5508C46.5938 28.4219 46.6758 28.3281 46.7812 28.2695C46.8867 28.1992 47.0039 28.1641 47.1328 28.1641C47.332 28.1641 47.4902 28.2344 47.6074 28.375C47.7363 28.5156 47.8008 28.668 47.8008 28.832C47.8008 28.8906 47.7949 28.9434 47.7832 28.9902C47.7715 29.0254 47.7539 29.0664 47.7305 29.1133C46.9219 30.8945 46.0371 32.2363 45.0762 33.1387C44.127 34.041 43.0488 34.5039 41.8418 34.5273C41.0684 34.5273 40.4004 34.375 39.8379 34.0703C39.2754 33.7773 38.8125 33.3965 38.4492 32.9277C38.0859 32.4473 37.8164 31.9082 37.6406 31.3105C37.4648 30.7129 37.377 30.1152 37.377 29.5176C37.377 28.9199 37.4473 28.3691 37.5879 27.8652C37.7402 27.3613 37.9512 26.9219 38.2207 26.5469C38.502 26.1719 38.8301 25.8789 39.2051 25.668C39.5918 25.457 40.0137 25.3516 40.4707 25.3516C40.7402 25.3516 41.0039 25.4102 41.2617 25.5273C41.5312 25.6328 41.7715 25.791 41.9824 26.002C42.1934 26.2012 42.3633 26.4473 42.4922 26.7402C42.6211 27.0332 42.6855 27.3672 42.6855 27.7422C42.6855 28.2227 42.6035 28.6738 42.4395 29.0957C42.2754 29.5176 42.0469 29.9102 41.7539 30.2734C41.4727 30.6367 41.1328 30.9707 40.7344 31.2754C40.3359 31.5801 39.9082 31.8438 39.4512 32.0664ZM38.9238 30.9238C39.2871 30.7715 39.6152 30.5781 39.9082 30.3438C40.2129 30.1094 40.4707 29.8516 40.6816 29.5703C40.8926 29.2891 41.0566 28.9961 41.1738 28.6914C41.291 28.375 41.3496 28.0586 41.3496 27.7422C41.3496 27.3906 41.2617 27.127 41.0859 26.9512C40.9102 26.7637 40.7051 26.6699 40.4707 26.6699C40.1543 26.6699 39.8848 26.7578 39.6621 26.9336C39.4395 27.1094 39.2578 27.3379 39.1172 27.6191C38.9766 27.9004 38.8711 28.2168 38.8008 28.5684C38.7422 28.9082 38.7129 29.248 38.7129 29.5879C38.7129 29.7988 38.7305 30.0215 38.7656 30.2559C38.8125 30.4902 38.8652 30.7129 38.9238 30.9238ZM61.3711 29.1309C61.3359 29.2012 61.2598 29.3477 61.1426 29.5703C61.0254 29.7812 60.873 30.0332 60.6855 30.3262C60.498 30.6074 60.2754 30.9121 60.0176 31.2402C59.7598 31.5566 59.4785 31.8496 59.1738 32.1191C58.8691 32.3887 58.541 32.6113 58.1895 32.7871C57.8379 32.9629 57.4746 33.0508 57.0996 33.0508C56.4902 33.0508 55.9746 32.9453 55.5527 32.7344C55.1309 32.5117 54.7852 32.2656 54.5156 31.9961C54.3281 32.4062 54.0996 32.7812 53.8301 33.1211C53.5605 33.4609 53.2617 33.7539 52.9336 34C52.6055 34.2578 52.2539 34.457 51.8789 34.5977C51.5156 34.7383 51.1406 34.8086 50.7539 34.8086C50.0391 34.8086 49.4297 34.5977 48.9258 34.1758C48.4219 33.7539 48 33.1914 47.6602 32.4883C47.332 31.7734 47.0742 30.9473 46.8867 30.0098C46.6992 29.0723 46.5527 28.0879 46.4473 27.0566C46.3535 26.0254 46.2949 24.9824 46.2715 23.9277C46.248 22.873 46.2363 21.8711 46.2363 20.9219C46.2363 19.1055 46.2891 17.5352 46.3945 16.2109C46.5 14.875 46.6406 13.7441 46.8164 12.8184C47.0039 11.8809 47.2148 11.125 47.4492 10.5508C47.6953 9.96484 47.9531 9.51367 48.2227 9.19727C48.4922 8.86914 48.7676 8.64648 49.0488 8.5293C49.3301 8.41211 49.6055 8.35352 49.875 8.35352C50.3086 8.35352 50.6895 8.48242 51.0176 8.74023C51.3574 8.99805 51.6387 9.36133 51.8613 9.83008C52.0957 10.2871 52.2715 10.8438 52.3887 11.5C52.5059 12.1562 52.5645 12.877 52.5645 13.6621C52.5645 14.916 52.4297 16.2109 52.1602 17.5469C51.8906 18.8828 51.5391 20.2188 51.1055 21.5547C50.6836 22.8789 50.209 24.1855 49.6816 25.4746C49.1543 26.752 48.6328 27.9648 48.1172 29.1133C48.1875 29.6875 48.293 30.2383 48.4336 30.7656C48.5742 31.2812 48.7559 31.7441 48.9785 32.1543C49.2012 32.5527 49.4648 32.875 49.7695 33.1211C50.0742 33.3555 50.4258 33.4727 50.8242 33.4727C51.2227 33.4727 51.5977 33.3613 51.9492 33.1387C52.3008 32.9043 52.6055 32.6055 52.8633 32.2422C53.1211 31.8672 53.3203 31.4453 53.4609 30.9766C53.6133 30.5078 53.6895 30.0273 53.6895 29.5352C53.6895 29.207 53.6543 28.8789 53.584 28.5508C53.5254 28.2109 53.4258 27.9121 53.2852 27.6543C53.1562 27.3848 52.9922 27.168 52.793 27.0039C52.5938 26.8398 52.3535 26.7578 52.0723 26.7578C51.8613 26.7578 51.6973 26.8047 51.5801 26.8984C51.4629 26.9805 51.375 27.0801 51.3164 27.1973C51.2578 27.3027 51.2227 27.4082 51.2109 27.5137C51.1992 27.6191 51.1934 27.6895 51.1934 27.7246C51.1934 27.8887 51.2285 28.0527 51.2988 28.2168C51.3691 28.3809 51.5039 28.5273 51.7031 28.6562C51.9023 28.7969 52.002 28.9902 52.002 29.2363C52.002 29.4355 51.9316 29.5938 51.791 29.7109C51.6621 29.8281 51.5156 29.8867 51.3516 29.8867C51.1172 29.8867 50.9062 29.8164 50.7188 29.6758C50.543 29.5352 50.3906 29.3594 50.2617 29.1484C50.1328 28.9258 50.0332 28.6914 49.9629 28.4453C49.8926 28.1992 49.8574 27.9707 49.8574 27.7598C49.8574 27.4199 49.916 27.1094 50.0332 26.8281C50.1504 26.5352 50.3086 26.2891 50.5078 26.0898C50.7188 25.8789 50.9531 25.7207 51.2109 25.6152C51.4805 25.498 51.7617 25.4395 52.0547 25.4395C52.5586 25.4395 52.9922 25.5566 53.3555 25.791C53.7305 26.0254 54.041 26.3359 54.2871 26.7227C54.5332 27.1094 54.7148 27.5488 54.832 28.041C54.9492 28.5332 55.0078 29.0312 55.0078 29.5352C55.0078 29.8281 54.9902 30.1152 54.9551 30.3965C55.002 30.4902 55.0781 30.6133 55.1836 30.7656C55.2891 30.918 55.4297 31.0645 55.6055 31.2051C55.7812 31.3457 55.9922 31.4688 56.2383 31.5742C56.4844 31.6797 56.7715 31.7324 57.0996 31.7324C57.3809 31.7324 57.668 31.627 57.9609 31.416C58.2656 31.1934 58.5527 30.9238 58.8223 30.6074C59.1035 30.2793 59.3613 29.9336 59.5957 29.5703C59.8301 29.1953 60.0234 28.8496 60.1758 28.5332C60.2344 28.416 60.3164 28.3281 60.4219 28.2695C60.5273 28.1992 60.6445 28.1641 60.7734 28.1641C60.9727 28.1641 61.1309 28.2344 61.248 28.375C61.377 28.5156 61.4414 28.6738 61.4414 28.8496C61.4414 28.9199 61.418 29.0137 61.3711 29.1309ZM47.7832 26.8633C48.1816 25.8789 48.5859 24.8477 48.9961 23.7695C49.4062 22.6797 49.7754 21.5723 50.1035 20.4473C50.4316 19.3223 50.7012 18.1855 50.9121 17.0371C51.123 15.8887 51.2285 14.7578 51.2285 13.6445C51.2285 13.2227 51.2051 12.7832 51.1582 12.3262C51.123 11.8574 51.0527 11.4297 50.9473 11.043C50.8418 10.6562 50.6953 10.334 50.5078 10.0762C50.332 9.81836 50.1035 9.68945 49.8223 9.68945C49.7285 9.68945 49.6055 9.75391 49.4531 9.88281C49.3125 10 49.1602 10.2168 48.9961 10.5332C48.832 10.8379 48.668 11.2656 48.5039 11.8164C48.3398 12.3672 48.1875 13.0703 48.0469 13.9258C47.918 14.7695 47.8066 15.7891 47.7129 16.9844C47.6309 18.1797 47.5898 19.5859 47.5898 21.2031C47.5898 21.7422 47.5957 22.293 47.6074 22.8555C47.6191 23.4062 47.6309 23.9336 47.6426 24.4375C47.666 24.9414 47.6895 25.4043 47.7129 25.8262C47.7363 26.248 47.7598 26.5938 47.7832 26.8633ZM67.3125 28.4629C67.1367 29.2832 66.8848 30.0508 66.5566 30.7656C66.2285 31.4688 65.877 32.084 65.502 32.6113C65.1387 33.1387 64.7695 33.5547 64.3945 33.8594C64.0195 34.1641 63.6973 34.3281 63.4277 34.3516C63.123 34.3516 62.7832 34.1992 62.4082 33.8945C62.0449 33.5898 61.6934 33.168 61.3535 32.6289C61.0254 32.0781 60.75 31.4277 60.5273 30.6777C60.3047 29.9277 60.1934 29.1133 60.1934 28.2344C60.1934 27.4609 60.2578 26.875 60.3867 26.4766C60.5273 26.0781 60.6152 25.8496 60.6504 25.791C60.709 25.6855 60.7852 25.6035 60.8789 25.5449C60.9844 25.4863 61.1016 25.457 61.2305 25.457C61.4297 25.457 61.5879 25.5273 61.7051 25.668C61.8223 25.7969 61.8809 25.9434 61.8809 26.1074C61.8809 26.2246 61.8574 26.3242 61.8105 26.4062C61.7988 26.4297 61.7461 26.5879 61.6523 26.8809C61.5586 27.1738 61.5117 27.6133 61.5117 28.1992C61.5117 28.8906 61.582 29.5293 61.7227 30.1152C61.8633 30.7012 62.0332 31.2051 62.2324 31.627C62.4316 32.0488 62.6367 32.3828 62.8477 32.6289C63.0703 32.8633 63.252 32.9805 63.3926 32.9805C63.4863 32.9805 63.6211 32.8926 63.7969 32.7168C63.9844 32.541 64.1777 32.3008 64.377 31.9961C64.5879 31.6914 64.7988 31.3281 65.0098 30.9062C65.2324 30.4844 65.4316 30.0273 65.6074 29.5352C65.7949 29.0312 65.9414 28.5039 66.0469 27.9531C66.1641 27.3906 66.2227 26.8223 66.2227 26.248C66.2227 26.1309 66.2168 26.0195 66.2051 25.9141C66.2051 25.7969 66.2051 25.6797 66.2051 25.5625C66.2051 25.3633 66.2637 25.1992 66.3809 25.0703C66.5098 24.9297 66.6738 24.8594 66.873 24.8594C67.0254 24.8594 67.1602 24.9062 67.2773 25C67.4062 25.0938 67.4883 25.2227 67.5234 25.3867C67.5234 25.375 67.5469 25.4688 67.5938 25.668C67.6406 25.8672 67.7168 26.125 67.8223 26.4414C67.9395 26.7461 68.0801 27.0801 68.2441 27.4434C68.4199 27.8066 68.625 28.1465 68.8594 28.4629C69.1055 28.7676 69.3867 29.0254 69.7031 29.2363C70.0195 29.4473 70.3828 29.5527 70.793 29.5527C71.0156 29.5527 71.209 29.5059 71.373 29.4121C71.5371 29.3184 71.6719 29.2129 71.7773 29.0957C71.8828 28.9785 71.959 28.8672 72.0059 28.7617C72.0645 28.6562 72.0938 28.5977 72.0938 28.5859C72.1406 28.457 72.2168 28.3574 72.3223 28.2871C72.4395 28.2051 72.5684 28.1641 72.709 28.1641C72.8965 28.1641 73.0547 28.2344 73.1836 28.375C73.3125 28.5039 73.377 28.6562 73.377 28.832C73.377 28.9141 73.3594 28.9961 73.3242 29.0781C73.2539 29.2422 73.1484 29.4297 73.0078 29.6406C72.8789 29.8516 72.709 30.0508 72.498 30.2383C72.2871 30.4258 72.0352 30.584 71.7422 30.7129C71.4609 30.8301 71.1445 30.8887 70.793 30.8887C70.3828 30.8887 70.002 30.8184 69.6504 30.6777C69.2988 30.5254 68.9766 30.3379 68.6836 30.1152C68.4023 29.8809 68.1445 29.623 67.9102 29.3418C67.6758 29.0488 67.4766 28.7559 67.3125 28.4629ZM85.6992 29.0957C85.6523 29.1895 85.5527 29.3887 85.4004 29.6934C85.2598 29.9863 85.0723 30.3262 84.8379 30.7129C84.6152 31.0996 84.3516 31.5039 84.0469 31.9258C83.7422 32.3477 83.4023 32.7344 83.0273 33.0859C82.6523 33.4375 82.248 33.7305 81.8145 33.9648C81.3809 34.1875 80.9238 34.2988 80.4434 34.2988C79.7637 34.2988 79.1895 34.082 78.7207 33.6484C78.2637 33.2148 77.9297 32.6699 77.7188 32.0137C77.3203 32.6816 76.8457 33.2148 76.2949 33.6133C75.7441 34 75.1934 34.1934 74.6426 34.1934C74.209 34.1934 73.8164 34.1172 73.4648 33.9648C73.1133 33.8008 72.8145 33.5781 72.5684 33.2969C72.3223 33.0039 72.1289 32.6641 71.9883 32.2773C71.8594 31.8906 71.7949 31.4688 71.7949 31.0117C71.7949 30.0977 71.9473 29.2949 72.252 28.6035C72.5684 27.9004 72.9668 27.3145 73.4473 26.8457C73.9277 26.377 74.4551 26.0254 75.0293 25.791C75.6152 25.5566 76.1777 25.4395 76.7168 25.4395C77.0801 25.4395 77.4141 25.4922 77.7188 25.5977C78.0234 25.6914 78.2812 25.7969 78.4922 25.9141C78.7148 26.0312 78.8848 26.1426 79.002 26.248C79.1191 26.3418 79.1836 26.3945 79.1953 26.4062C79.3242 26.5586 79.3887 26.7168 79.3887 26.8809C79.3887 27.0566 79.3242 27.2148 79.1953 27.3555C79.0664 27.4844 78.9141 27.5488 78.7383 27.5488C78.5508 27.5488 78.3926 27.4844 78.2637 27.3555C78.2402 27.332 78.1875 27.291 78.1055 27.2324C78.0234 27.1621 77.9121 27.0918 77.7715 27.0215C77.6309 26.9512 77.4609 26.8926 77.2617 26.8457C77.0742 26.7871 76.8574 26.7578 76.6113 26.7578C76.248 26.7578 75.8613 26.8398 75.4512 27.0039C75.041 27.168 74.666 27.4258 74.3262 27.7773C73.9863 28.1172 73.6992 28.5508 73.4648 29.0781C73.2422 29.5938 73.1309 30.209 73.1309 30.9238C73.1309 31.1465 73.1543 31.375 73.2012 31.6094C73.248 31.832 73.3301 32.0371 73.4473 32.2246C73.5645 32.4121 73.7227 32.5645 73.9219 32.6816C74.1211 32.7988 74.3672 32.8574 74.6602 32.8574C74.8711 32.8574 75.1113 32.7871 75.3809 32.6465C75.6621 32.5059 75.9258 32.2891 76.1719 31.9961C76.4297 31.7031 76.6582 31.334 76.8574 30.8887C77.0684 30.4434 77.2148 29.916 77.2969 29.3066C77.3203 29.1426 77.3965 29.0078 77.5254 28.9023C77.6543 28.7852 77.8066 28.7266 77.9824 28.7266C78.1465 28.7266 78.2871 28.791 78.4043 28.9199C78.5332 29.0488 78.6035 29.1953 78.6152 29.3594C78.627 29.582 78.6504 29.8984 78.6855 30.3086C78.7207 30.707 78.7969 31.1055 78.9141 31.5039C79.043 31.9023 79.2305 32.248 79.4766 32.541C79.7227 32.834 80.0625 32.9805 80.4961 32.9805C80.7773 32.9805 81.0527 32.9043 81.3223 32.752C81.6035 32.5996 81.873 32.4004 82.1309 32.1543C82.4004 31.8965 82.6523 31.6094 82.8867 31.293C83.1328 30.9648 83.3555 30.6367 83.5547 30.3086C83.7539 29.9805 83.9297 29.6641 84.082 29.3594C84.2344 29.0547 84.3633 28.791 84.4688 28.5684C84.5273 28.4395 84.6094 28.3398 84.7148 28.2695C84.832 28.1992 84.9551 28.1641 85.084 28.1641C85.2832 28.1641 85.4414 28.2402 85.5586 28.3926C85.6875 28.5332 85.752 28.6855 85.752 28.8496C85.752 28.9316 85.7344 29.0137 85.6992 29.0957ZM94.4883 29.1309C94.3594 29.4004 94.1953 29.7227 93.9961 30.0977C93.8086 30.4609 93.5918 30.8418 93.3457 31.2402C93.0996 31.6387 92.8242 32.0371 92.5195 32.4355C92.2148 32.8223 91.8809 33.1738 91.5176 33.4902C91.166 33.7949 90.7852 34.041 90.375 34.2285C89.9766 34.4277 89.5488 34.5273 89.0918 34.5273C88.3887 34.5273 87.7852 34.3105 87.2812 33.877C86.7773 33.4434 86.3496 32.875 85.998 32.1719C85.6465 31.4688 85.3594 30.6719 85.1367 29.7812C84.9258 28.8789 84.7617 27.9648 84.6445 27.0391C84.5273 26.1016 84.4453 25.1934 84.3984 24.3145C84.3633 23.4355 84.3457 22.6562 84.3457 21.9766C84.3457 20.9922 84.375 19.9727 84.4336 18.918C84.5039 17.8633 84.6094 16.832 84.75 15.8242C84.8906 14.8164 85.0664 13.8613 85.2773 12.959C85.5 12.0566 85.7578 11.2656 86.0508 10.5859C86.3555 9.90625 86.7012 9.36719 87.0879 8.96875C87.4746 8.57031 87.9141 8.37109 88.4062 8.37109C88.793 8.37109 89.1387 8.46484 89.4434 8.65234C89.7598 8.82812 90.0234 9.12109 90.2344 9.53125C90.4453 9.94141 90.6094 10.4746 90.7266 11.1309C90.8438 11.7871 90.9023 12.5898 90.9023 13.5391C90.9023 14.7109 90.7793 15.9238 90.5332 17.1777C90.2871 18.4199 89.9531 19.6738 89.5312 20.9395C89.1094 22.2051 88.6113 23.4707 88.0371 24.7363C87.4629 25.9902 86.8477 27.2148 86.1914 28.4102C86.4844 29.8984 86.877 31.0703 87.3691 31.9258C87.8613 32.7695 88.4531 33.1914 89.1445 33.1914C89.6133 33.1914 90.0645 33.0098 90.498 32.6465C90.9316 32.2715 91.3301 31.832 91.6934 31.3281C92.0566 30.8242 92.373 30.3145 92.6426 29.7988C92.9238 29.2715 93.1406 28.8496 93.293 28.5332C93.3516 28.416 93.4336 28.3281 93.5391 28.2695C93.6445 28.1992 93.7617 28.1641 93.8906 28.1641C94.0898 28.1641 94.248 28.2344 94.3652 28.375C94.4941 28.5156 94.5586 28.6738 94.5586 28.8496C94.5586 28.9199 94.5352 29.0137 94.4883 29.1309ZM85.6816 22.0645C85.6816 22.8145 85.6992 23.5352 85.7344 24.2266C85.7695 24.918 85.8164 25.5801 85.875 26.2129C86.3672 25.2637 86.8359 24.2559 87.2812 23.1895C87.7266 22.1113 88.1191 21.0273 88.459 19.9375C88.7988 18.8359 89.0684 17.7461 89.2676 16.668C89.4785 15.5781 89.584 14.541 89.584 13.5566C89.584 12.1738 89.4727 11.1836 89.25 10.5859C89.0273 9.98828 88.7285 9.68945 88.3535 9.68945C88.1074 9.68945 87.8672 9.85938 87.6328 10.1992C87.4102 10.5391 87.1992 11.002 87 11.5879C86.8008 12.1738 86.6191 12.8652 86.4551 13.6621C86.291 14.459 86.1504 15.3145 86.0332 16.2285C85.9277 17.1426 85.8398 18.0977 85.7695 19.0938C85.7109 20.0898 85.6816 21.0801 85.6816 22.0645Z" fill="#FB7979"/>
<path d="M4.64744 61C4.53544 61 4.44344 60.964 4.37144 60.892C4.30744 60.82 4.27544 60.736 4.27544 60.64V52.996H5.01944V60.64C5.01944 60.736 4.98344 60.82 4.91144 60.892C4.83944 60.964 4.75144 61 4.64744 61ZM1.79144 53.284C1.69544 53.284 1.61144 53.252 1.53944 53.188C1.46744 53.124 1.43144 53.04 1.43144 52.936C1.43144 52.84 1.46744 52.76 1.53944 52.696C1.61144 52.632 1.69544 52.6 1.79144 52.6H7.50344C7.59944 52.6 7.68344 52.632 7.75544 52.696C7.82744 52.76 7.86344 52.844 7.86344 52.948C7.86344 53.052 7.82744 53.136 7.75544 53.2C7.68344 53.256 7.59944 53.284 7.50344 53.284H1.79144ZM12.0096 54.82C12.5136 54.82 12.9216 54.928 13.2336 55.144C13.5456 55.36 13.7736 55.652 13.9176 56.02C14.0696 56.388 14.1456 56.796 14.1456 57.244V60.64C14.1456 60.736 14.1096 60.82 14.0376 60.892C13.9656 60.964 13.8816 61 13.7856 61C13.6736 61 13.5856 60.964 13.5216 60.892C13.4576 60.82 13.4256 60.736 13.4256 60.64V57.244C13.4256 56.916 13.3736 56.62 13.2696 56.356C13.1736 56.092 13.0136 55.884 12.7896 55.732C12.5656 55.572 12.2656 55.492 11.8896 55.492C11.5536 55.492 11.2336 55.572 10.9296 55.732C10.6336 55.884 10.3936 56.092 10.2096 56.356C10.0256 56.62 9.93363 56.916 9.93363 57.244V60.64C9.93363 60.736 9.89763 60.82 9.82563 60.892C9.75363 60.964 9.66963 61 9.57363 61C9.46163 61 9.37363 60.964 9.30963 60.892C9.24563 60.82 9.21363 60.736 9.21363 60.64V52.48C9.21363 52.384 9.24563 52.3 9.30963 52.228C9.38163 52.156 9.46963 52.12 9.57363 52.12C9.67763 52.12 9.76163 52.156 9.82563 52.228C9.89763 52.3 9.93363 52.384 9.93363 52.48V56.368L9.65763 56.788C9.67363 56.54 9.74963 56.3 9.88563 56.068C10.0296 55.828 10.2136 55.616 10.4376 55.432C10.6616 55.24 10.9096 55.092 11.1816 54.988C11.4536 54.876 11.7296 54.82 12.0096 54.82ZM18.8059 61.12C18.1899 61.12 17.6459 60.988 17.1739 60.724C16.7019 60.46 16.3339 60.092 16.0699 59.62C15.8059 59.148 15.6739 58.596 15.6739 57.964C15.6739 57.284 15.8059 56.704 16.0699 56.224C16.3419 55.744 16.6899 55.376 17.1139 55.12C17.5459 54.856 18.0019 54.724 18.4819 54.724C18.8339 54.724 19.1739 54.788 19.5019 54.916C19.8379 55.036 20.1339 55.22 20.3899 55.468C20.6539 55.708 20.8619 56.004 21.0139 56.356C21.1739 56.708 21.2619 57.116 21.2779 57.58C21.2699 57.676 21.2299 57.76 21.1579 57.832C21.0859 57.896 21.0019 57.928 20.9059 57.928H16.0939L15.9499 57.28H20.6779L20.5219 57.424V57.184C20.4899 56.808 20.3699 56.488 20.1619 56.224C19.9539 55.96 19.7019 55.76 19.4059 55.624C19.1099 55.488 18.8019 55.42 18.4819 55.42C18.2419 55.42 17.9939 55.468 17.7379 55.564C17.4899 55.66 17.2619 55.812 17.0539 56.02C16.8539 56.22 16.6899 56.48 16.5619 56.8C16.4339 57.112 16.3699 57.484 16.3699 57.916C16.3699 58.388 16.4659 58.816 16.6579 59.2C16.8499 59.584 17.1259 59.888 17.4859 60.112C17.8539 60.336 18.2899 60.448 18.7939 60.448C19.0739 60.448 19.3259 60.408 19.5499 60.328C19.7739 60.248 19.9699 60.144 20.1379 60.016C20.3059 59.88 20.4459 59.74 20.5579 59.596C20.6459 59.524 20.7339 59.488 20.8219 59.488C20.9019 59.488 20.9699 59.52 21.0259 59.584C21.0899 59.648 21.1219 59.72 21.1219 59.8C21.1219 59.896 21.0819 59.98 21.0019 60.052C20.7619 60.34 20.4499 60.592 20.0659 60.808C19.6819 61.016 19.2619 61.12 18.8059 61.12ZM26.9763 61.552C26.9763 61.936 26.8843 62.26 26.7003 62.524C26.5243 62.796 26.3043 63.004 26.0403 63.148C25.7763 63.292 25.5123 63.364 25.2483 63.364C25.1443 63.364 25.0643 63.332 25.0083 63.268C24.9443 63.204 24.9123 63.128 24.9123 63.04V62.992C24.9123 62.896 24.9443 62.82 25.0083 62.764C25.0723 62.708 25.1443 62.672 25.2243 62.656C25.4083 62.616 25.5763 62.548 25.7283 62.452C25.8883 62.356 26.0163 62.224 26.1123 62.056C26.2083 61.888 26.2563 61.684 26.2563 61.444V55.252C26.2563 55.156 26.2883 55.072 26.3523 55C26.4243 54.928 26.5123 54.892 26.6163 54.892C26.7203 54.892 26.8043 54.928 26.8683 55C26.9403 55.072 26.9763 55.156 26.9763 55.252V61.552ZM26.6163 53.944C26.4483 53.944 26.3203 53.908 26.2323 53.836C26.1523 53.756 26.1123 53.644 26.1123 53.5V53.38C26.1123 53.236 26.1563 53.128 26.2443 53.056C26.3403 52.976 26.4683 52.936 26.6283 52.936C26.7803 52.936 26.8963 52.976 26.9763 53.056C27.0643 53.128 27.1083 53.236 27.1083 53.38V53.5C27.1083 53.644 27.0643 53.756 26.9763 53.836C26.8963 53.908 26.7763 53.944 26.6163 53.944ZM35.0467 57.928C35.0467 58.536 34.9147 59.084 34.6507 59.572C34.3867 60.052 34.0267 60.432 33.5707 60.712C33.1147 60.984 32.5947 61.12 32.0107 61.12C31.4427 61.12 30.9267 60.984 30.4627 60.712C30.0067 60.432 29.6427 60.052 29.3707 59.572C29.1067 59.084 28.9747 58.536 28.9747 57.928C28.9747 57.312 29.1067 56.764 29.3707 56.284C29.6427 55.804 30.0067 55.424 30.4627 55.144C30.9267 54.864 31.4427 54.724 32.0107 54.724C32.5947 54.724 33.1147 54.864 33.5707 55.144C34.0267 55.424 34.3867 55.804 34.6507 56.284C34.9147 56.764 35.0467 57.312 35.0467 57.928ZM34.3267 57.928C34.3267 57.44 34.2267 57.008 34.0267 56.632C33.8267 56.248 33.5507 55.948 33.1987 55.732C32.8547 55.508 32.4587 55.396 32.0107 55.396C31.5787 55.396 31.1867 55.508 30.8347 55.732C30.4827 55.948 30.2027 56.248 29.9947 56.632C29.7947 57.008 29.6947 57.44 29.6947 57.928C29.6947 58.416 29.7947 58.848 29.9947 59.224C30.2027 59.6 30.4827 59.9 30.8347 60.124C31.1867 60.34 31.5787 60.448 32.0107 60.448C32.4587 60.448 32.8547 60.34 33.1987 60.124C33.5507 59.9 33.8267 59.6 34.0267 59.224C34.2267 58.848 34.3267 58.416 34.3267 57.928ZM41.1489 54.76C41.2529 54.76 41.3369 54.796 41.4009 54.868C41.4729 54.94 41.5089 55.024 41.5089 55.12V60.412C41.5089 61.06 41.3809 61.604 41.1249 62.044C40.8689 62.492 40.5249 62.828 40.0929 63.052C39.6609 63.284 39.1689 63.4 38.6169 63.4C38.2729 63.4 37.9529 63.36 37.6569 63.28C37.3689 63.208 37.1329 63.112 36.9489 62.992C36.8529 62.936 36.7809 62.868 36.7329 62.788C36.6849 62.708 36.6809 62.624 36.7209 62.536C36.7609 62.424 36.8209 62.348 36.9009 62.308C36.9889 62.276 37.0769 62.28 37.1649 62.32C37.3009 62.392 37.4969 62.48 37.7529 62.584C38.0089 62.688 38.3009 62.74 38.6289 62.74C39.0689 62.74 39.4489 62.648 39.7689 62.464C40.0969 62.28 40.3489 62.012 40.5249 61.66C40.7009 61.316 40.7889 60.904 40.7889 60.424V59.56L40.8729 59.848C40.7529 60.096 40.5809 60.316 40.3569 60.508C40.1409 60.7 39.8889 60.852 39.6009 60.964C39.3209 61.068 39.0209 61.12 38.7009 61.12C38.2209 61.12 37.8209 61.024 37.5009 60.832C37.1889 60.632 36.9569 60.36 36.8049 60.016C36.6529 59.672 36.5769 59.268 36.5769 58.804V55.12C36.5769 55.024 36.6089 54.94 36.6729 54.868C36.7369 54.796 36.8249 54.76 36.9369 54.76C37.0409 54.76 37.1249 54.796 37.1889 54.868C37.2609 54.94 37.2969 55.024 37.2969 55.12V58.696C37.2969 59.256 37.4169 59.688 37.6569 59.992C37.9049 60.296 38.3049 60.448 38.8569 60.448C39.2009 60.448 39.5169 60.368 39.8049 60.208C40.0929 60.04 40.3289 59.824 40.5129 59.56C40.6969 59.288 40.7889 59 40.7889 58.696V55.12C40.7889 55.024 40.8209 54.94 40.8849 54.868C40.9569 54.796 41.0449 54.76 41.1489 54.76ZM52.3905 57.928C52.3905 58.536 52.2585 59.084 51.9945 59.572C51.7305 60.052 51.3705 60.432 50.9145 60.712C50.4585 60.984 49.9385 61.12 49.3545 61.12C48.7865 61.12 48.2705 60.984 47.8065 60.712C47.3505 60.432 46.9865 60.052 46.7145 59.572C46.4505 59.084 46.3185 58.536 46.3185 57.928C46.3185 57.312 46.4505 56.764 46.7145 56.284C46.9865 55.804 47.3505 55.424 47.8065 55.144C48.2705 54.864 48.7865 54.724 49.3545 54.724C49.9385 54.724 50.4585 54.864 50.9145 55.144C51.3705 55.424 51.7305 55.804 51.9945 56.284C52.2585 56.764 52.3905 57.312 52.3905 57.928ZM51.6705 57.928C51.6705 57.44 51.5705 57.008 51.3705 56.632C51.1705 56.248 50.8945 55.948 50.5425 55.732C50.1985 55.508 49.8025 55.396 49.3545 55.396C48.9225 55.396 48.5305 55.508 48.1785 55.732C47.8265 55.948 47.5465 56.248 47.3385 56.632C47.1385 57.008 47.0385 57.44 47.0385 57.928C47.0385 58.416 47.1385 58.848 47.3385 59.224C47.5465 59.6 47.8265 59.9 48.1785 60.124C48.5305 60.34 48.9225 60.448 49.3545 60.448C49.8025 60.448 50.1985 60.34 50.5425 60.124C50.8945 59.9 51.1705 59.6 51.3705 59.224C51.5705 58.848 51.6705 58.416 51.6705 57.928ZM56.1407 52.168C56.2607 52.168 56.3887 52.18 56.5247 52.204C56.6687 52.228 56.7927 52.272 56.8967 52.336C57.0007 52.392 57.0527 52.48 57.0527 52.6C57.0527 52.688 57.0207 52.768 56.9567 52.84C56.8927 52.904 56.8207 52.936 56.7407 52.936C56.6607 52.936 56.5607 52.916 56.4407 52.876C56.3207 52.828 56.1927 52.804 56.0567 52.804C55.8887 52.804 55.7447 52.844 55.6247 52.924C55.5047 52.996 55.4127 53.104 55.3487 53.248C55.2847 53.384 55.2527 53.552 55.2527 53.752V60.64C55.2527 60.736 55.2167 60.82 55.1447 60.892C55.0807 60.964 54.9967 61 54.8927 61C54.7887 61 54.7007 60.964 54.6287 60.892C54.5647 60.82 54.5327 60.736 54.5327 60.64V53.752C54.5327 53.24 54.6807 52.848 54.9767 52.576C55.2807 52.304 55.6687 52.168 56.1407 52.168ZM56.5967 54.988C56.6927 54.988 56.7727 55.02 56.8367 55.084C56.9007 55.148 56.9327 55.228 56.9327 55.324C56.9327 55.42 56.9007 55.5 56.8367 55.564C56.7727 55.628 56.6927 55.66 56.5967 55.66H53.6567C53.5687 55.66 53.4887 55.628 53.4167 55.564C53.3527 55.492 53.3207 55.412 53.3207 55.324C53.3207 55.22 53.3527 55.14 53.4167 55.084C53.4887 55.02 53.5687 54.988 53.6567 54.988H56.5967ZM64.0821 54.724C64.4421 54.724 64.7741 54.788 65.0781 54.916C65.3821 55.036 65.6461 55.196 65.8701 55.396C66.1021 55.588 66.2821 55.796 66.4101 56.02C66.5381 56.236 66.6021 56.444 66.6021 56.644L66.3981 56.356V55.24C66.3981 55.136 66.4301 55.048 66.4941 54.976C66.5661 54.904 66.6541 54.868 66.7581 54.868C66.8701 54.868 66.9581 54.904 67.0221 54.976C67.0861 55.048 67.1181 55.136 67.1181 55.24V60.436C67.1181 61.076 66.9861 61.616 66.7221 62.056C66.4581 62.496 66.0981 62.828 65.6421 63.052C65.1941 63.284 64.6821 63.4 64.1061 63.4C63.8261 63.4 63.5301 63.364 63.2181 63.292C62.9141 63.22 62.6501 63.128 62.4261 63.016C62.2101 62.904 62.0901 62.788 62.0661 62.668C62.0021 62.596 61.9701 62.524 61.9701 62.452C61.9781 62.388 62.0141 62.332 62.0781 62.284C62.1581 62.228 62.2421 62.22 62.3301 62.26C62.4181 62.308 62.5501 62.368 62.7261 62.44C62.8061 62.464 62.9141 62.5 63.0501 62.548C63.1861 62.596 63.3461 62.636 63.5301 62.668C63.7221 62.708 63.9221 62.728 64.1301 62.728C64.8501 62.728 65.4061 62.52 65.7981 62.104C66.1981 61.696 66.3981 61.156 66.3981 60.484V59.332L66.5301 59.368C66.4581 59.656 66.3381 59.908 66.1701 60.124C66.0101 60.34 65.8181 60.524 65.5941 60.676C65.3701 60.82 65.1261 60.928 64.8621 61C64.6061 61.08 64.3501 61.12 64.0941 61.12C63.5421 61.12 63.0461 60.98 62.6061 60.7C62.1661 60.42 61.8141 60.04 61.5501 59.56C61.2941 59.08 61.1661 58.532 61.1661 57.916C61.1661 57.308 61.2941 56.764 61.5501 56.284C61.8141 55.796 62.1621 55.416 62.5941 55.144C63.0341 54.864 63.5301 54.724 64.0821 54.724ZM64.1661 55.396C63.7261 55.396 63.3301 55.508 62.9781 55.732C62.6341 55.948 62.3621 56.248 62.1621 56.632C61.9701 57.008 61.8741 57.436 61.8741 57.916C61.8741 58.396 61.9701 58.828 62.1621 59.212C62.3621 59.596 62.6341 59.9 62.9781 60.124C63.3301 60.34 63.7261 60.448 64.1661 60.448C64.6061 60.448 64.9981 60.34 65.3421 60.124C65.6861 59.908 65.9581 59.612 66.1581 59.236C66.3581 58.852 66.4581 58.412 66.4581 57.916C66.4581 57.42 66.3581 56.984 66.1581 56.608C65.9581 56.224 65.6861 55.928 65.3421 55.72C64.9981 55.504 64.6061 55.396 64.1661 55.396ZM69.7104 60.64C69.7104 60.736 69.6744 60.82 69.6024 60.892C69.5304 60.964 69.4464 61 69.3504 61C69.2464 61 69.1584 60.964 69.0864 60.892C69.0224 60.82 68.9904 60.736 68.9904 60.64V55.12C68.9904 55.024 69.0224 54.94 69.0864 54.868C69.1584 54.796 69.2464 54.76 69.3504 54.76C69.4544 54.76 69.5384 54.796 69.6024 54.868C69.6744 54.94 69.7104 55.024 69.7104 55.12V60.64ZM69.3504 53.956C69.1824 53.956 69.0544 53.92 68.9664 53.848C68.8864 53.768 68.8464 53.656 68.8464 53.512V53.392C68.8464 53.248 68.8904 53.14 68.9784 53.068C69.0744 52.988 69.2024 52.948 69.3624 52.948C69.5144 52.948 69.6304 52.988 69.7104 53.068C69.7984 53.14 69.8424 53.248 69.8424 53.392V53.512C69.8424 53.656 69.7984 53.768 69.7104 53.848C69.6304 53.92 69.5104 53.956 69.3504 53.956ZM71.4368 54.736C71.5008 54.736 71.5648 54.756 71.6288 54.796C71.6928 54.836 71.7408 54.896 71.7728 54.976L73.8728 59.968L73.7168 60.064L75.8648 54.976C75.9288 54.816 76.0448 54.74 76.2128 54.748C76.2928 54.748 76.3688 54.776 76.4408 54.832C76.5128 54.88 76.5488 54.952 76.5488 55.048C76.5488 55.096 76.5408 55.136 76.5248 55.168C76.5168 55.192 76.5088 55.22 76.5008 55.252L74.1488 60.772C74.0848 60.916 73.9768 60.992 73.8248 61C73.7528 61.008 73.6808 60.992 73.6088 60.952C73.5448 60.904 73.4968 60.844 73.4648 60.772L71.1008 55.252C71.0928 55.236 71.0848 55.212 71.0768 55.18C71.0688 55.148 71.0648 55.116 71.0648 55.084C71.0648 54.996 71.0968 54.916 71.1608 54.844C71.2248 54.772 71.3168 54.736 71.4368 54.736ZM78.6284 60.64C78.6284 60.736 78.5924 60.82 78.5204 60.892C78.4484 60.964 78.3644 61 78.2684 61C78.1644 61 78.0764 60.964 78.0044 60.892C77.9404 60.82 77.9084 60.736 77.9084 60.64V55.12C77.9084 55.024 77.9404 54.94 78.0044 54.868C78.0764 54.796 78.1644 54.76 78.2684 54.76C78.3724 54.76 78.4564 54.796 78.5204 54.868C78.5924 54.94 78.6284 55.024 78.6284 55.12V60.64ZM78.2684 53.956C78.1004 53.956 77.9724 53.92 77.8844 53.848C77.8044 53.768 77.7644 53.656 77.7644 53.512V53.392C77.7644 53.248 77.8084 53.14 77.8964 53.068C77.9924 52.988 78.1204 52.948 78.2804 52.948C78.4324 52.948 78.5484 52.988 78.6284 53.068C78.7164 53.14 78.7604 53.248 78.7604 53.392V53.512C78.7604 53.656 78.7164 53.768 78.6284 53.848C78.5484 53.92 78.4284 53.956 78.2684 53.956ZM83.3908 54.724C83.9188 54.724 84.3388 54.832 84.6508 55.048C84.9708 55.256 85.1988 55.544 85.3348 55.912C85.4788 56.272 85.5508 56.672 85.5508 57.112V60.64C85.5508 60.736 85.5148 60.82 85.4428 60.892C85.3708 60.964 85.2868 61 85.1908 61C85.0788 61 84.9908 60.964 84.9268 60.892C84.8628 60.82 84.8308 60.736 84.8308 60.64V57.148C84.8308 56.828 84.7788 56.536 84.6748 56.272C84.5708 56.008 84.3988 55.796 84.1588 55.636C83.9268 55.476 83.6188 55.396 83.2348 55.396C82.8908 55.396 82.5628 55.476 82.2508 55.636C81.9468 55.796 81.6988 56.008 81.5068 56.272C81.3148 56.536 81.2188 56.828 81.2188 57.148V60.64C81.2188 60.736 81.1828 60.82 81.1108 60.892C81.0388 60.964 80.9548 61 80.8588 61C80.7468 61 80.6588 60.964 80.5948 60.892C80.5308 60.82 80.4988 60.736 80.4988 60.64V55.264C80.4988 55.168 80.5308 55.084 80.5948 55.012C80.6668 54.94 80.7548 54.904 80.8588 54.904C80.9628 54.904 81.0468 54.94 81.1108 55.012C81.1828 55.084 81.2188 55.168 81.2188 55.264V56.272L80.9428 56.704C80.9588 56.448 81.0388 56.204 81.1828 55.972C81.3348 55.732 81.5268 55.52 81.7588 55.336C81.9908 55.144 82.2468 54.996 82.5268 54.892C82.8148 54.78 83.1028 54.724 83.3908 54.724ZM89.9923 54.724C90.3523 54.724 90.6843 54.788 90.9883 54.916C91.2923 55.036 91.5563 55.196 91.7803 55.396C92.0123 55.588 92.1923 55.796 92.3203 56.02C92.4483 56.236 92.5123 56.444 92.5123 56.644L92.3083 56.356V55.24C92.3083 55.136 92.3403 55.048 92.4043 54.976C92.4763 54.904 92.5643 54.868 92.6683 54.868C92.7803 54.868 92.8683 54.904 92.9323 54.976C92.9963 55.048 93.0283 55.136 93.0283 55.24V60.436C93.0283 61.076 92.8963 61.616 92.6323 62.056C92.3683 62.496 92.0083 62.828 91.5523 63.052C91.1043 63.284 90.5923 63.4 90.0163 63.4C89.7363 63.4 89.4403 63.364 89.1283 63.292C88.8243 63.22 88.5603 63.128 88.3363 63.016C88.1203 62.904 88.0003 62.788 87.9763 62.668C87.9123 62.596 87.8803 62.524 87.8803 62.452C87.8883 62.388 87.9243 62.332 87.9883 62.284C88.0683 62.228 88.1523 62.22 88.2403 62.26C88.3283 62.308 88.4603 62.368 88.6363 62.44C88.7163 62.464 88.8243 62.5 88.9603 62.548C89.0963 62.596 89.2563 62.636 89.4403 62.668C89.6323 62.708 89.8323 62.728 90.0403 62.728C90.7603 62.728 91.3163 62.52 91.7083 62.104C92.1083 61.696 92.3083 61.156 92.3083 60.484V59.332L92.4403 59.368C92.3683 59.656 92.2483 59.908 92.0803 60.124C91.9203 60.34 91.7283 60.524 91.5043 60.676C91.2803 60.82 91.0363 60.928 90.7723 61C90.5163 61.08 90.2603 61.12 90.0043 61.12C89.4523 61.12 88.9563 60.98 88.5163 60.7C88.0763 60.42 87.7243 60.04 87.4603 59.56C87.2043 59.08 87.0763 58.532 87.0763 57.916C87.0763 57.308 87.2043 56.764 87.4603 56.284C87.7243 55.796 88.0723 55.416 88.5043 55.144C88.9443 54.864 89.4403 54.724 89.9923 54.724ZM90.0763 55.396C89.6363 55.396 89.2403 55.508 88.8883 55.732C88.5443 55.948 88.2723 56.248 88.0723 56.632C87.8803 57.008 87.7843 57.436 87.7843 57.916C87.7843 58.396 87.8803 58.828 88.0723 59.212C88.2723 59.596 88.5443 59.9 88.8883 60.124C89.2403 60.34 89.6363 60.448 90.0763 60.448C90.5163 60.448 90.9083 60.34 91.2523 60.124C91.5963 59.908 91.8683 59.612 92.0683 59.236C92.2683 58.852 92.3683 58.412 92.3683 57.916C92.3683 57.42 92.2683 56.984 92.0683 56.608C91.8683 56.224 91.5963 55.928 91.2523 55.72C90.9083 55.504 90.5163 55.396 90.0763 55.396Z" fill="#4F4F4F"/>
</svg>
