<svg width="19" height="19" viewBox="0 0 19 19" fill="none" xmlns="http://www.w3.org/2000/svg">
<path d="M6.82812 3.98438H6.6875C6.76484 3.98438 6.82812 3.92109 6.82812 3.84375V3.98438H12.1719V3.84375C12.1719 3.92109 12.2352 3.98438 12.3125 3.98438H12.1719V5.25H13.4375V3.84375C13.4375 3.22324 12.933 2.71875 12.3125 2.71875H6.6875C6.06699 2.71875 5.5625 3.22324 5.5625 3.84375V5.25H6.82812V3.98438ZM15.6875 5.25H3.3125C3.00137 5.25 2.75 5.50137 2.75 5.8125V6.375C2.75 6.45234 2.81328 6.51562 2.89062 6.51562H3.95234L4.38652 15.709C4.41465 16.3084 4.91035 16.7812 5.50977 16.7812H13.4902C14.0914 16.7812 14.5854 16.3102 14.6135 15.709L15.0477 6.51562H16.1094C16.1867 6.51562 16.25 6.45234 16.25 6.375V5.8125C16.25 5.50137 15.9986 5.25 15.6875 5.25ZM13.3549 15.5156H5.64512L5.21973 6.51562H13.7803L13.3549 15.5156Z" fill="#FF0000"/>
</svg>
