<svg width="14" height="15" viewBox="0 0 14 15" fill="none" xmlns="http://www.w3.org/2000/svg">
<path d="M4.32812 1.98438H4.1875C4.26484 1.98438 4.32812 1.92109 4.32812 1.84375V1.98438H9.67188V1.84375C9.67188 1.92109 9.73516 1.98438 9.8125 1.98438H9.67188V3.25H10.9375V1.84375C10.9375 1.22324 10.433 0.71875 9.8125 0.71875H4.1875C3.56699 0.71875 3.0625 1.22324 3.0625 1.84375V3.25H4.32812V1.98438ZM13.1875 3.25H0.8125C0.501367 3.25 0.25 3.50137 0.25 3.8125V4.375C0.25 4.45234 0.313281 4.51562 0.390625 4.51562H1.45234L1.88652 13.709C1.91465 14.3084 2.41035 14.7812 3.00977 14.7812H10.9902C11.5914 14.7812 12.0854 14.3102 12.1135 13.709L12.5477 4.51562H13.6094C13.6867 4.51562 13.75 4.45234 13.75 4.375V3.8125C13.75 3.50137 13.4986 3.25 13.1875 3.25ZM10.8549 13.5156H3.14512L2.71973 4.51562H11.2803L10.8549 13.5156Z" fill="black"/>
</svg>
