<svg width="32" height="32" viewBox="0 0 32 32" fill="none" xmlns="http://www.w3.org/2000/svg">
<path d="M15.371 13.0409C15.482 13.0779 15.597 13.1049 15.713 13.1219C15.898 13.1689 16.086 13.2019 16.276 13.2219C16.3665 13.6573 16.601 14.0495 16.9417 14.3351C17.2825 14.6208 17.7095 14.7834 18.154 14.7966C18.5985 14.8097 19.0344 14.6728 19.3915 14.4078C19.7485 14.1427 20.0059 13.7652 20.122 13.3359C20.34 12.5499 20.452 11.7379 20.455 10.9219C20.9322 10.2745 21.3247 9.56881 21.623 8.82192L21.636 8.79192L21.743 8.53192L21.88 8.18592C22.0263 7.80687 22.1647 7.42479 22.295 7.03992L22.322 6.95992L22.332 6.92792C22.4 6.72792 22.468 6.50592 22.532 6.28192C22.57 6.15292 22.606 6.02192 22.641 5.88992C22.8054 5.3046 22.9132 4.70485 22.963 4.09892V4.06892C22.9803 3.57296 22.8127 3.08827 22.4926 2.70903C22.1725 2.3298 21.7228 2.08312 21.231 2.01692C20.842 1.967 20.447 2.03493 20.097 2.21192C19.7896 2.36755 19.5277 2.59995 19.3366 2.88658C19.1454 3.17321 19.0315 3.50435 19.006 3.84792V3.85792C18.9281 4.46941 18.7839 5.07061 18.576 5.65092C18.476 5.95092 18.376 6.23592 18.276 6.49092C18.076 6.38792 17.866 6.30092 17.652 6.23092L17.633 6.22192C16.7325 5.93564 15.7556 6.01568 14.9137 6.44471C14.0718 6.87374 13.4329 7.61719 13.1354 8.51399C12.8379 9.41079 12.9057 10.3887 13.3241 11.2359C13.7426 12.083 14.478 12.7312 15.371 13.0399V13.0409V13.0409ZM19.157 13.0719C19.1038 13.2694 18.99 13.4451 18.8317 13.5746C18.6734 13.704 18.4785 13.7806 18.2745 13.7935C18.0704 13.8064 17.8674 13.755 17.694 13.6466C17.5207 13.5381 17.3857 13.3781 17.308 13.1889C17.498 13.1549 17.685 13.1069 17.867 13.0449C18.4171 12.8492 18.9231 12.5467 19.356 12.1549C19.306 12.4649 19.24 12.7699 19.157 13.0719ZM14.047 8.81192C14.1539 8.48947 14.3234 8.19125 14.5456 7.9343C14.7678 7.67735 15.0385 7.4667 15.3422 7.3144C15.6459 7.1621 15.9766 7.07113 16.3154 7.04668C16.6543 7.02223 16.9946 7.06479 17.317 7.17192L17.347 7.18192C17.542 7.24392 17.73 7.32592 17.908 7.42592L17.887 7.47492V7.48692C17.6634 8.00729 17.3597 8.48946 16.987 8.91592L16.971 8.93192L16.946 8.96092C16.9141 8.99855 16.8808 9.03491 16.846 9.06992C16.813 9.05644 16.7796 9.04377 16.746 9.03192L16.716 9.02192C16.5569 8.9693 16.3834 8.98185 16.2334 9.0568C16.0835 9.13176 15.9694 9.26304 15.916 9.42192C15.8861 9.49935 15.8732 9.58235 15.8784 9.66521C15.8836 9.74807 15.9066 9.82882 15.946 9.90192C16.006 10.0299 16.108 10.1329 16.235 10.1939C16.269 10.2019 16.302 10.2109 16.335 10.2219C16.425 10.2539 16.519 10.2749 16.614 10.2829C16.7662 10.2919 16.9178 10.2572 17.051 10.1829C17.121 10.1469 17.188 10.1059 17.251 10.0589C17.419 9.92692 17.573 9.77892 17.709 9.61392L17.719 9.60392C18.1658 9.10049 18.5294 8.52896 18.796 7.91092C18.8271 7.84 18.8565 7.76831 18.884 7.69592C18.8853 7.691 18.8853 7.68584 18.884 7.68092L18.894 7.65692C18.9496 7.5266 19.0036 7.39559 19.056 7.26392L19.09 7.17692L19.124 7.08892C19.548 6.07392 19.844 5.00992 20.007 3.92192C20.026 3.66246 20.1455 3.42066 20.34 3.24792C20.5338 3.0755 20.7881 2.98703 21.047 3.00192C21.262 3.01392 21.467 3.09792 21.627 3.24192C21.7389 3.34001 21.8274 3.46183 21.8863 3.5985C21.9451 3.73517 21.9727 3.88324 21.967 4.03192C21.957 4.19092 21.938 4.35892 21.912 4.53192C21.832 5.02392 21.72 5.51192 21.576 5.98892L21.534 6.12892C21.3524 6.72481 21.1472 7.31327 20.919 7.89292L20.886 7.97692C20.8294 8.12047 20.7714 8.26348 20.712 8.40592L20.697 8.44192L20.611 8.64992C20.2594 9.46576 19.7823 10.2216 19.197 10.8899C18.7286 11.4859 18.09 11.9254 17.366 12.1499C17.0264 12.2422 16.672 12.2666 16.323 12.2219C16.1805 12.2043 16.0394 12.1762 15.901 12.1379C15.8281 12.1316 15.7563 12.1165 15.687 12.0929C15.3638 11.9852 15.065 11.815 14.8077 11.5918C14.5504 11.3686 14.3395 11.0969 14.1872 10.7922C14.0349 10.4875 13.9442 10.1558 13.9201 9.81601C13.896 9.47623 13.9392 9.13503 14.047 8.81192V8.81192ZM12.06 3.97992C11.9553 4.05411 11.8368 4.10657 11.7115 4.13418C11.5862 4.1618 11.4567 4.16402 11.3305 4.14071C11.2043 4.11741 11.0841 4.06904 10.9769 3.99848C10.8698 3.92792 10.7778 3.83659 10.7066 3.72989C10.6353 3.6232 10.5862 3.5033 10.562 3.37728C10.5379 3.25126 10.5393 3.12169 10.5661 2.99621C10.5928 2.87073 10.6445 2.7519 10.718 2.64673C10.7915 2.54157 10.8854 2.4522 10.994 2.38392C11.2057 2.25087 11.4609 2.20565 11.7054 2.25785C11.9499 2.31006 12.1643 2.45559 12.3032 2.66348C12.4421 2.87138 12.4943 3.12524 12.4489 3.37108C12.4035 3.61693 12.264 3.83536 12.06 3.97992V3.97992ZM23.968 22.8259C24.0737 22.7508 24.1934 22.6977 24.32 22.6697C24.4467 22.6417 24.5776 22.6393 24.7051 22.6628C24.8327 22.6862 24.9542 22.735 25.0626 22.8063C25.1709 22.8775 25.2639 22.9698 25.336 23.0776C25.4081 23.1853 25.4578 23.3065 25.4823 23.4339C25.5067 23.5612 25.5054 23.6922 25.4783 23.819C25.4513 23.9458 25.3991 24.0659 25.3249 24.1722C25.2506 24.2786 25.1558 24.3689 25.046 24.4379C24.8322 24.5723 24.5744 24.6181 24.3274 24.5655C24.0804 24.5128 23.8637 24.3659 23.7233 24.156C23.583 23.9461 23.53 23.6897 23.5757 23.4413C23.6214 23.1929 23.7621 22.9721 23.968 22.8259V22.8259ZM24.967 8.91192C25.2747 8.91192 25.5697 8.78971 25.7872 8.57216C26.0048 8.35462 26.127 8.05957 26.127 7.75192C26.127 7.44427 26.0048 7.14922 25.7872 6.93168C25.5697 6.71413 25.2747 6.59192 24.967 6.59192C24.6593 6.59192 24.3643 6.71413 24.1468 6.93168C23.9292 7.14922 23.807 7.44427 23.807 7.75192C23.807 8.05957 23.9292 8.35462 24.1468 8.57216C24.3643 8.78971 24.6593 8.91192 24.967 8.91192V8.91192ZM6.651 8.71592C6.52444 8.80436 6.38149 8.86664 6.23054 8.89912C6.0796 8.93159 5.92368 8.9336 5.77195 8.90504C5.62021 8.87647 5.47571 8.8179 5.3469 8.73276C5.2181 8.64762 5.10759 8.53762 5.02185 8.40921C4.93611 8.2808 4.87687 8.13657 4.8476 7.98497C4.81833 7.83336 4.81962 7.67745 4.85139 7.52635C4.88317 7.37525 4.94479 7.23202 5.03264 7.10505C5.12049 6.97807 5.2328 6.86992 5.363 6.78692C5.61893 6.61612 5.93223 6.55399 6.23398 6.61418C6.53573 6.67438 6.8012 6.85199 6.972 7.10792C7.1428 7.36385 7.20493 7.67715 7.14473 7.9789C7.08454 8.28065 6.90693 8.54612 6.651 8.71692V8.71592Z" fill="black"/>
<path d="M29.396 14.89C29.2715 14.9476 29.1368 14.98 28.9997 14.9855C28.8626 14.991 28.7257 14.9694 28.597 14.922C27.5365 14.5252 26.3922 14.4059 25.2726 14.5755C24.1531 14.7451 23.0954 15.1979 22.2 15.891C24.527 15.951 26.802 16.585 28.823 17.74C29.3172 18.0189 29.681 18.4819 29.8352 19.028C29.9894 19.5742 29.9215 20.1591 29.6462 20.6553C29.3709 21.1515 28.9106 21.5188 28.3656 21.677C27.8207 21.8352 27.2352 21.7716 26.737 21.5C25.5407 20.8056 24.2102 20.374 22.8341 20.2338C21.458 20.0937 20.0678 20.2481 18.756 20.687C19.091 21.33 19.342 22.014 19.501 22.722C19.558 22.933 19.586 23.152 19.585 23.37C19.6189 23.6463 19.5937 23.9268 19.5109 24.1926C19.4282 24.4585 19.2898 24.7037 19.105 24.912C19.025 24.992 18.936 25.062 18.84 25.121C18.5445 25.4048 18.1813 25.6083 17.785 25.712L5.047 29.122C4.6363 29.2316 4.20398 29.2311 3.79355 29.1205C3.38312 29.0099 3.00905 28.7932 2.70899 28.4921C2.40892 28.191 2.19346 27.8162 2.08427 27.4054C1.97508 26.9946 1.97602 26.5623 2.087 26.152L5.497 13.412C5.60173 13.0111 5.80843 12.6442 6.097 12.347C6.15393 12.2548 6.22101 12.1692 6.297 12.092C6.49875 11.9117 6.736 11.7757 6.99348 11.6927C7.25096 11.6097 7.52297 11.5815 7.792 11.61C8.035 11.604 8.278 11.635 8.512 11.702C9.13305 11.8423 9.73526 12.0558 10.306 12.338C10.586 10.718 10.316 9.04998 9.537 7.60198C9.3898 7.32748 9.35768 7.00575 9.4477 6.70756C9.53772 6.40938 9.7425 6.15917 10.017 6.01198C10.2915 5.86478 10.6132 5.83266 10.9114 5.92268C11.2096 6.01269 11.4598 6.21748 11.607 6.49198C12.7765 8.67074 13.0712 11.2135 12.431 13.602C13.2073 14.153 13.9453 14.7561 14.64 15.407C14.8507 15.1934 15.1365 15.0706 15.4364 15.0648C15.7363 15.0589 16.0267 15.1706 16.2455 15.3758C16.4643 15.581 16.5942 15.8636 16.6076 16.1633C16.6209 16.463 16.5167 16.7561 16.317 16.98C17.7657 16.4131 19.2888 16.059 20.839 15.929C20.7161 15.8303 20.6169 15.7052 20.5489 15.563C20.4809 15.4208 20.4458 15.2651 20.4462 15.1075C20.4466 14.9499 20.4824 14.7944 20.5511 14.6525C20.6198 14.5106 20.7196 14.386 20.843 14.288C22.0233 13.3545 23.4247 12.7416 24.9113 12.5086C26.398 12.2756 27.9197 12.4304 29.329 12.958C29.5222 13.0311 29.6894 13.1598 29.8097 13.3277C29.93 13.4956 29.998 13.6953 30.0051 13.9017C30.0123 14.1081 29.9583 14.312 29.8499 14.4879C29.7415 14.6637 29.5836 14.8036 29.396 14.89V14.89ZM11.508 22.247L11.327 22.092L11.493 22.234L11.508 22.246V22.247ZM11.508 22.247L11.64 22.359C11.5962 22.321 11.5522 22.2834 11.508 22.246V22.247ZM4.054 28.155C4.294 28.22 4.548 28.22 4.789 28.156L5.367 28.005C4.54963 27.4123 3.81542 26.7128 3.184 25.925L3.053 26.415C3.00442 26.595 2.99177 26.7827 3.01579 26.9676C3.03981 27.1525 3.10002 27.3308 3.19298 27.4924C3.28594 27.654 3.40982 27.7957 3.55756 27.9093C3.7053 28.023 3.87399 28.1065 4.054 28.155V28.155ZM5.65 25.648C6.3616 26.3045 7.16255 26.857 8.029 27.289L10.827 26.54C9.73818 25.8966 8.72225 25.1372 7.797 24.275C6.58731 23.132 5.53115 21.8369 4.655 20.422L3.861 23.391C4.34701 24.2245 4.94941 24.9845 5.65 25.648V25.648ZM9.167 22.813C10.5015 24.0451 12.0326 25.0456 13.697 25.773L16.188 25.105C13.91 24.2043 11.8579 22.8138 10.177 21.032C9.58841 20.4467 9.03289 19.8291 8.513 19.182C8.283 18.897 8.069 18.612 7.869 18.329C7.12072 17.3186 6.52377 16.2046 6.097 15.022L5.394 17.683C6.34833 19.5966 7.62459 21.3319 9.167 22.813V22.813ZM28.701 18.903C28.6028 18.7841 28.4818 18.6861 28.345 18.615H28.34C26.6452 17.6456 24.7559 17.0658 22.8091 16.9176C20.8624 16.7693 18.907 17.0564 17.085 17.758L16.893 17.828L16.902 17.838C15.0074 18.5967 13.3159 19.7869 11.962 21.314C12.221 21.541 12.472 21.749 12.721 21.949C13.07 22.229 13.421 22.488 13.821 22.749C14.9123 21.4931 16.2955 20.5247 17.849 19.929C19.3638 19.3348 20.9927 19.0886 22.6154 19.2085C24.2381 19.3285 25.8131 19.8115 27.224 20.622C27.4568 20.7616 27.7314 20.8144 27.9993 20.771C28.2672 20.7276 28.5112 20.5909 28.688 20.385C28.8648 20.1791 28.9631 19.9173 28.9655 19.6459C28.9679 19.3745 28.8742 19.111 28.701 18.902V18.903Z" fill="black"/>
</svg>
