<svg width="39" height="36" viewBox="0 0 39 36" fill="none" xmlns="http://www.w3.org/2000/svg">
<path d="M19.6875 29.7812L19.5 29.9688L19.2938 29.7812C10.3875 21.7 4.5 16.3562 4.5 10.9375C4.5 7.1875 7.3125 4.375 11.0625 4.375C13.95 4.375 16.7625 6.25 17.7562 8.8H21.2438C22.2375 6.25 25.05 4.375 27.9375 4.375C31.6875 4.375 34.5 7.1875 34.5 10.9375C34.5 16.3562 28.6125 21.7 19.6875 29.7812ZM27.9375 0.625C24.675 0.625 21.5438 2.14375 19.5 4.525C17.4562 2.14375 14.325 0.625 11.0625 0.625C5.2875 0.625 0.75 5.14375 0.75 10.9375C0.75 18.0063 7.125 23.8 16.7812 32.5563L19.5 35.0312L22.2188 32.5563C31.875 23.8 38.25 18.0063 38.25 10.9375C38.25 5.14375 33.7125 0.625 27.9375 0.625Z" fill="black"/>
</svg>
