<svg width="20" height="20" viewBox="0 0 20 20" fill="none" xmlns="http://www.w3.org/2000/svg">
<path d="M9.94145 0C4.451 0 0 4.45099 0 9.94145C0 14.8657 3.58409 18.9439 8.28341 19.7336V12.0155H5.88525V9.23808H8.28341V7.19011C8.28341 4.81389 9.73474 3.51898 11.8548 3.51898C12.8702 3.51898 13.7428 3.59464 13.9961 3.62797V6.11176L12.5257 6.11247C11.373 6.11247 11.1507 6.66013 11.1507 7.46406V9.23666H13.9012L13.5425 12.0141H11.1507V19.8C16.0695 19.2013 19.8828 15.0193 19.8828 9.9386C19.8828 4.45099 15.4318 0 9.94145 0Z" fill="#0071E2"/>
</svg>
