<svg width="40" height="40" viewBox="0 0 40 40" fill="none" xmlns="http://www.w3.org/2000/svg">
<path d="M20 39.2306C17.3958 39.2306 14.9043 38.7235 12.5255 37.7094C10.1467 36.6953 8.09971 35.3306 6.38446 33.6153C4.66922 31.9001 3.30453 29.8531 2.29041 27.4743C1.27629 25.0955 0.769226 22.604 0.769226 19.9998C0.769226 17.3956 1.27629 14.9042 2.29041 12.5254C3.30453 10.1465 4.66922 8.09952 6.38446 6.38428C8.09971 4.66903 10.1467 3.30435 12.5255 2.29023C14.9043 1.2761 17.3958 0.769043 20 0.769043C22.6042 0.769043 25.0956 1.2761 27.4745 2.29023C29.8533 3.30435 31.9003 4.66903 33.6155 6.38428C35.3308 8.09952 36.6955 10.1465 37.7096 12.5254C38.7237 14.9042 39.2308 17.3956 39.2308 19.9998C39.2308 22.604 38.7237 25.0955 37.7096 27.4743C36.6955 29.8531 35.3308 31.9001 33.6155 33.6153C31.9003 35.3306 29.8533 36.6953 27.4745 37.7094C25.0956 38.7235 22.6042 39.2306 20 39.2306ZM29.6154 12.7883C29.6154 12.1372 29.3838 11.5738 28.9205 11.0981C28.4573 10.6223 27.8876 10.3844 27.2115 10.3844H12.7885C12.1374 10.3844 11.574 10.6223 11.0983 11.0981C10.6225 11.5738 10.3846 12.1372 10.3846 12.7883V15.1921H14.6665C16.1188 13.5896 17.8966 12.7883 20 12.7883C22.1034 12.7883 23.8812 13.5896 25.3335 15.1921H29.6154V12.7883ZM15.1923 19.9998C15.1923 21.3269 15.6618 22.46 16.6008 23.399C17.5398 24.338 18.6729 24.8075 20 24.8075C21.3271 24.8075 22.4602 24.338 23.3992 23.399C24.3382 22.46 24.8077 21.3269 24.8077 19.9998C24.8077 18.6727 24.3382 17.5396 23.3992 16.6006C22.4602 15.6616 21.3271 15.1921 20 15.1921C18.6729 15.1921 17.5398 15.6616 16.6008 16.6006C15.6618 17.5396 15.1923 18.6727 15.1923 19.9998ZM29.6154 17.596H26.7608C27.0613 18.4223 27.2115 19.2236 27.2115 19.9998C27.2115 22.003 26.5104 23.7057 25.1082 25.108C23.7059 26.5102 22.0032 27.2114 20 27.2114C17.9968 27.2114 16.2941 26.5102 14.8918 25.108C13.4896 23.7057 12.7885 22.003 12.7885 19.9998C12.7885 19.2236 12.9387 18.4223 13.2392 17.596H10.3846V27.2114C10.3846 27.8874 10.6162 28.4571 11.0795 28.9203C11.5427 29.3836 12.1124 29.6152 12.7885 29.6152H27.2115C27.8876 29.6152 28.4573 29.3836 28.9205 28.9203C29.3838 28.4571 29.6154 27.8874 29.6154 27.2114V17.596Z" fill="white"/>
</svg>
