<svg width="23" height="24" viewBox="0 0 23 24" fill="none" xmlns="http://www.w3.org/2000/svg">
<path d="M11.3812 4.74384C9.8042 4.74384 8.54264 5.11835 7.43877 5.99221C6.3349 6.86607 5.86182 7.86477 5.86182 9.11315C5.86182 10.3615 6.3349 11.3602 7.43877 12.2341C8.54264 13.1079 9.8042 13.4825 11.3812 13.4825C12.9581 13.4825 14.2197 13.1079 15.3235 12.2341C16.4274 11.3602 16.9005 10.2367 16.9005 9.11315C16.9005 7.86477 16.4274 6.86607 15.3235 5.99221C14.2197 5.11835 12.8004 4.74384 11.3812 4.74384ZM11.3812 5.74254C12.6427 5.74254 13.5889 5.99221 14.3774 6.74124C15.1658 7.36542 15.6389 8.23929 15.6389 9.11315C15.6389 10.1118 15.1658 10.8609 14.3774 11.4851C13.5889 12.1092 12.485 12.4838 11.3812 12.4838C10.1196 12.4838 9.17342 12.1092 8.38494 11.4851C7.59647 10.8609 7.12338 9.98701 7.12338 9.11315C7.12338 8.11445 7.59647 7.36542 8.38494 6.74124C9.17342 6.11705 10.1196 5.74254 11.3812 5.74254Z" fill="black"/>
<path d="M19.1081 2.49675C16.9003 0.873862 14.3772 0 11.381 0C8.38477 0 5.70395 0.873862 3.65391 2.49675C1.44617 4.11964 0.5 6.24187 0.5 8.61378C0.5 10.2367 0.973086 11.6099 1.91926 12.9831C1.91926 12.9831 2.07695 13.1079 2.07695 13.2328L10.5925 23.7191C10.9079 24.0936 11.381 24.0936 11.6964 23.7191L20.8427 13.1079C21.9466 11.7347 22.4197 10.2367 22.4197 8.61378C22.4197 6.24187 21.3158 4.11964 19.1081 2.49675ZM18.3196 3.12094C20.2119 4.61899 21.1581 6.36671 21.1581 8.48895C21.1581 9.987 20.685 11.2354 19.8965 12.3589L10.7502 22.9701H11.8541L3.18082 12.6086C3.18082 12.4837 2.86543 12.3589 3.02313 12.3589C2.23465 11.2354 1.76156 9.987 1.76156 8.61378C1.76156 6.49155 2.70774 4.74382 4.60008 3.24577C6.49243 1.74772 8.70016 0.9987 11.381 0.9987C14.0618 0.9987 16.2695 1.62289 18.3196 3.12094Z" fill="black"/>
</svg>
