<svg width="360" height="673" viewBox="0 0 360 673" fill="none" xmlns="http://www.w3.org/2000/svg">
<rect x="1.17529" width="421.845" height="673" fill="#FFE9E9"/>
<path d="M56.0233 9.01655C30.7122 13.6555 10.5102 31.1245 2.97626 51.8684C-4.82526 73.3583 3.05988 95.9137 22.5344 110.974C41.34 125.502 69.3603 132.358 93.693 124.415C116.454 116.984 136.229 95.793 125.242 74.6086C115.96 56.7205 88.4502 46.2633 66.9605 54.0707C45.4707 61.8781 35.0269 83.7302 38.9569 102.599C43.9238 126.405 71.1497 139.54 96.0427 146.196C126.195 154.309 161.323 155.503 186.024 174.172C205.498 188.892 215.047 211.824 213.107 233.726C212.22 244.701 208.125 255.316 201.192 264.607C193.524 274.688 180.438 283.32 166.006 284.499C149.951 285.813 138.412 275.349 137.249 262.213C135.987 247.771 146.289 235.147 156.08 224.185C174.785 203.257 198.725 182.42 229.797 175.97C257.316 170.286 290.412 176.723 305.003 198.98C321.543 224.214 309.769 254.328 292.235 276.592C282.719 288.669 271.406 299.687 260.268 310.692C248.946 321.881 237.524 333.013 226.821 344.656C206.568 366.736 188.9 390.968 181.282 418.489C174.133 444.305 176.265 472.068 193.131 494.936C208.801 516.248 234.104 531.288 261.012 540.928C294.626 553.005 331.167 557.751 366.788 563.533L481.043 582.089L535.83 590.983C537.009 591.175 537.502 589.641 536.331 589.442L423.447 571.106C386.723 565.146 349.739 559.868 313.265 552.877C280.796 546.647 248.227 537.575 221.946 519.623C210.306 511.673 200.071 502.133 192.638 491.079C184.658 479.004 180.124 465.507 179.401 451.672C175.764 391.494 228.225 345.381 270.645 302.835C290.847 282.559 311.617 259.983 314.393 232.504C315.606 220.626 313.39 208.208 306.374 197.758C299.911 188.328 289.921 181.006 277.995 176.957C252.257 167.971 223.267 172.851 200.372 185.233C187.579 192.174 176.433 201.111 166.482 210.773C156.323 220.647 145.695 231.495 139.524 243.608C134.273 253.923 133.077 266.632 140.82 276.336C147.743 285.003 160.002 287.745 171.6 285.266C196.86 279.867 211.452 258.136 214.537 237.491C217.589 217.017 210.54 195.314 194.787 179.515C174.719 159.417 143.395 154.594 114.756 148.811C87.6308 143.341 54.3258 134.112 43.2632 109.824C34.4249 90.4223 43.9071 64.7126 66.9019 55.8325C90.1309 46.8458 121.789 60.8053 126.036 82.3236C131.137 108.111 97.9743 126.44 71.1748 126.177C44.3754 125.914 18.1696 111.259 7.1237 90.5004C-4.357 68.8898 3.70374 43.3151 22.71 26.7341C31.8526 18.637 43.6084 13.0167 56.4999 10.5794C57.6956 10.3592 57.1772 8.82474 56.0233 9.01655Z" fill="white" fill-opacity="0.6"/>
</svg>
