<svg width="18" height="17" viewBox="0 0 18 17" fill="none" xmlns="http://www.w3.org/2000/svg">
<path d="M0.5 0.6875C0.5 0.538316 0.559263 0.395242 0.664752 0.289752C0.770242 0.184263 0.913316 0.125 1.0625 0.125H2.75C2.87547 0.125035 2.99733 0.16702 3.0962 0.244278C3.19506 0.321536 3.26526 0.429632 3.29562 0.551375L3.75125 2.375H16.8125C16.8951 2.37508 16.9767 2.39334 17.0514 2.42849C17.1261 2.46365 17.1922 2.51483 17.2449 2.5784C17.2977 2.64198 17.3357 2.71638 17.3565 2.79633C17.3772 2.87628 17.3801 2.95982 17.3649 3.041L15.6774 12.041C15.6532 12.1699 15.5848 12.2863 15.484 12.3701C15.3831 12.4539 15.2561 12.4999 15.125 12.5H5C4.86886 12.4999 4.74189 12.4539 4.64102 12.3701C4.54016 12.2863 4.47175 12.1699 4.44763 12.041L2.76125 3.05788L2.31125 1.25H1.0625C0.913316 1.25 0.770242 1.19074 0.664752 1.08525C0.559263 0.979758 0.5 0.836684 0.5 0.6875ZM3.98975 3.5L5.46688 11.375H14.6581L16.1353 3.5H3.98975ZM6.125 12.5C5.52826 12.5 4.95597 12.7371 4.53401 13.159C4.11205 13.581 3.875 14.1533 3.875 14.75C3.875 15.3467 4.11205 15.919 4.53401 16.341C4.95597 16.7629 5.52826 17 6.125 17C6.72174 17 7.29403 16.7629 7.71599 16.341C8.13795 15.919 8.375 15.3467 8.375 14.75C8.375 14.1533 8.13795 13.581 7.71599 13.159C7.29403 12.7371 6.72174 12.5 6.125 12.5ZM14 12.5C13.4033 12.5 12.831 12.7371 12.409 13.159C11.9871 13.581 11.75 14.1533 11.75 14.75C11.75 15.3467 11.9871 15.919 12.409 16.341C12.831 16.7629 13.4033 17 14 17C14.5967 17 15.169 16.7629 15.591 16.341C16.0129 15.919 16.25 15.3467 16.25 14.75C16.25 14.1533 16.0129 13.581 15.591 13.159C15.169 12.7371 14.5967 12.5 14 12.5ZM6.125 13.625C6.42337 13.625 6.70952 13.7435 6.9205 13.9545C7.13147 14.1655 7.25 14.4516 7.25 14.75C7.25 15.0484 7.13147 15.3345 6.9205 15.5455C6.70952 15.7565 6.42337 15.875 6.125 15.875C5.82663 15.875 5.54048 15.7565 5.3295 15.5455C5.11853 15.3345 5 15.0484 5 14.75C5 14.4516 5.11853 14.1655 5.3295 13.9545C5.54048 13.7435 5.82663 13.625 6.125 13.625ZM14 13.625C14.2984 13.625 14.5845 13.7435 14.7955 13.9545C15.0065 14.1655 15.125 14.4516 15.125 14.75C15.125 15.0484 15.0065 15.3345 14.7955 15.5455C14.5845 15.7565 14.2984 15.875 14 15.875C13.7016 15.875 13.4155 15.7565 13.2045 15.5455C12.9935 15.3345 12.875 15.0484 12.875 14.75C12.875 14.4516 12.9935 14.1655 13.2045 13.9545C13.4155 13.7435 13.7016 13.625 14 13.625Z" fill="black"/>
</svg>
