<svg width="22" height="24" viewBox="0 0 22 24" fill="none" xmlns="http://www.w3.org/2000/svg">
<path d="M20.735 19.1605C20.205 17.8888 19.4359 16.7337 18.4705 15.7595C17.5081 14.7825 16.368 14.0036 15.1132 13.4657C15.1019 13.46 15.0907 13.4571 15.0794 13.4514C16.8298 12.1708 17.9676 10.0847 17.9676 7.73102C17.9676 3.83203 14.8491 0.672989 11.0001 0.672989C7.15104 0.672989 4.0325 3.83203 4.0325 7.73102C4.0325 10.0847 5.17035 12.1708 6.92066 13.4543C6.90943 13.46 6.89819 13.4628 6.88695 13.4685C5.6283 14.0064 4.49888 14.7777 3.5296 15.7624C2.56513 16.7373 1.79616 17.8922 1.26515 19.1633C0.74349 20.4078 0.462146 21.7419 0.43635 23.0936C0.4356 23.124 0.440859 23.1542 0.451818 23.1825C0.462777 23.2108 0.479214 23.2366 0.50016 23.2583C0.521106 23.2801 0.546137 23.2974 0.573779 23.3091C0.601421 23.3209 0.631114 23.327 0.661109 23.327H2.34681C2.47042 23.327 2.56876 23.2274 2.57157 23.105C2.62776 20.9079 3.4987 18.8503 5.0383 17.2907C6.63129 15.677 8.74684 14.7891 11.0001 14.7891C13.2533 14.7891 15.3688 15.677 16.9618 17.2907C18.5014 18.8503 19.3723 20.9079 19.4285 23.105C19.4313 23.2302 19.5297 23.327 19.6533 23.327H21.339C21.369 23.327 21.3987 23.3209 21.4263 23.3091C21.454 23.2974 21.479 23.2801 21.4999 23.2583C21.5209 23.2366 21.5373 23.2108 21.5483 23.1825C21.5592 23.1542 21.5645 23.124 21.5638 23.0936C21.5357 21.7333 21.2575 20.4099 20.735 19.1605ZM11.0001 12.6261C9.71049 12.6261 8.49679 12.1167 7.5837 11.1917C6.67062 10.2668 6.16772 9.03733 6.16772 7.73102C6.16772 6.42472 6.67062 5.19525 7.5837 4.27031C8.49679 3.34537 9.71049 2.83594 11.0001 2.83594C12.2896 2.83594 13.5033 3.34537 14.4164 4.27031C15.3295 5.19525 15.8324 6.42472 15.8324 7.73102C15.8324 9.03733 15.3295 10.2668 14.4164 11.1917C13.5033 12.1167 12.2896 12.6261 11.0001 12.6261Z" fill="black"/>
</svg>
