<svg width="39" height="39" viewBox="0 0 39 39" fill="none" xmlns="http://www.w3.org/2000/svg">
<path d="M19.64 0.547363C9.25115 0.547363 0.827515 8.971 0.827515 19.3599C0.827515 29.7487 9.25115 38.1724 19.64 38.1724C30.0289 38.1724 38.4525 29.7487 38.4525 19.3599C38.4525 8.971 30.0289 0.547363 19.64 0.547363ZM28.6809 14.7281C28.6935 14.9255 28.6935 15.1313 28.6935 15.3328C28.6935 21.4973 23.9988 28.5981 15.4198 28.5981C12.7743 28.5981 10.3219 27.8297 8.25593 26.5069C8.63386 26.5489 8.995 26.5657 9.38132 26.5657C11.5649 26.5657 13.5721 25.8267 15.172 24.5753C13.1228 24.5333 11.4011 23.1896 10.8133 21.3419C11.5313 21.4469 12.178 21.4469 12.9171 21.2579C11.8619 21.0435 10.9135 20.4705 10.233 19.6361C9.55247 18.8017 9.1818 17.7575 9.18396 16.6808V16.622C9.80124 16.9705 10.5277 17.1847 11.2878 17.2141C10.6488 16.7882 10.1248 16.2113 9.76224 15.5345C9.39965 14.8577 9.20967 14.1018 9.20916 13.334C9.20916 12.4647 9.43591 11.6711 9.84324 10.9824C11.0144 12.4242 12.4759 13.6033 14.1326 14.4433C15.7893 15.2832 17.6043 15.7651 19.4594 15.8577C18.8002 12.6873 21.1685 10.1216 24.0156 10.1216C25.3594 10.1216 26.5687 10.6843 27.4212 11.5913C28.4752 11.3939 29.483 10.9992 30.3816 10.4701C30.0331 11.5493 29.3024 12.4605 28.3324 13.0358C29.273 12.9351 30.1801 12.6747 31.0199 12.3094C30.3858 13.2416 29.5922 14.0688 28.6809 14.7281Z" fill="white"/>
</svg>
